<?xml version="1.0" encoding="UTF-8" standalone="no"?>
<!-- Created with Inkscape (http://www.inkscape.org/) -->

<svg
   xmlns:dc="http://purl.org/dc/elements/1.1/"
   xmlns:cc="http://creativecommons.org/ns#"
   xmlns:rdf="http://www.w3.org/1999/02/22-rdf-syntax-ns#"
   xmlns:svg="http://www.w3.org/2000/svg"
   xmlns="http://www.w3.org/2000/svg"
   xmlns:sodipodi="http://sodipodi.sourceforge.net/DTD/sodipodi-0.dtd"
   xmlns:inkscape="http://www.inkscape.org/namespaces/inkscape"
   width="160"
   height="160"
   id="svg2"
   version="1.1"
   inkscape:version="0.91 r13725"
   sodipodi:docname="Bat.svg">
  <defs
     id="defs4" />
  <sodipodi:namedview
     id="base"
     pagecolor="#ffffff"
     bordercolor="#666666"
     borderopacity="1.0"
     inkscape:pageopacity="0.0"
     inkscape:pageshadow="2"
     inkscape:zoom="3.959798"
     inkscape:cx="95.835015"
     inkscape:cy="52.116178"
     inkscape:document-units="px"
     inkscape:current-layer="layer2"
     showgrid="false"
     inkscape:window-width="1920"
     inkscape:window-height="1137"
     inkscape:window-x="-8"
     inkscape:window-y="-8"
     inkscape:window-maximized="1"
     showborder="true"
     fit-margin-top="0"
     fit-margin-left="0"
     fit-margin-right="0"
     fit-margin-bottom="0" />
  <metadata
     id="metadata7">
    <rdf:RDF>
      <cc:Work
         rdf:about="">
        <dc:format>image/svg+xml</dc:format>
        <dc:type
           rdf:resource="http://purl.org/dc/dcmitype/StillImage" />
        <dc:title></dc:title>
      </cc:Work>
    </rdf:RDF>
  </metadata>
  <g
     inkscape:groupmode="layer"
     id="layer2"
     inkscape:label="Bat"
     style="display:inline"
     transform="translate(-252.15399,-60.598879)">
    <path
       style="fill:#000000;fill-rule:evenodd;stroke:#000000;stroke-width:1px;stroke-linecap:butt;stroke-linejoin:miter;stroke-opacity:1"
       d="m 266.71281,69.604558 c -1.47723,12.37227 -8.64232,20.1264 -13.92857,22.5 3.61571,9.830782 4.1813,19.038352 0.17856,29.821432 14.84732,4.24463 18.51439,22.75104 20.88182,34.96085 0.17619,0.90866 -2.70043,1.87272 -2.55582,2.70529 0.18722,1.07787 -0.21497,1.96262 0.70185,2.83801 0.46056,0.43975 1.49951,-0.0178 2.83307,-1.25477 0.79583,4.29868 -1.02998,11.04964 -0.65556,11.7774 0.4201,0.81652 9.60582,0.13977 12.00894,1.65179 0.63518,0.27278 -1.32441,2.86678 -0.70025,3.13914 0.31285,0.13652 1.14399,1.1647 1.98076,0.97192 1.31917,-0.30391 2.51709,-2.45398 2.99899,-2.2392 24.59007,10.96007 40.13805,21.57099 44.64906,31.521 14.64655,-2.34291 30.69801,2.94504 41.96429,11.96428 6.54227,-5.09999 19.83291,-4.16323 34.04214,-4.93871 1.61511,-7.64291 -6.44814,-20.15676 -11.46394,-29.85684 -7.12101,-8.30528 -18.99647,-15.25278 -23.59688,-19.40522 -0.59774,-0.53954 0.31629,-3.08376 -0.10412,-3.68361 -0.67952,-0.20129 -1.42633,2.2722 -2.18252,2.00528 -5.72982,-2.0225 -26.85881,-4.60109 -36.30691,-12.96335 -12.15907,-13.05439 -9.53161,-7.69296 -21.93179,-23.97321 -1.52314,-1.78695 -8.50134,-20.7644 -11.19428,-32.578002 -0.0701,-0.30728 3.72428,-0.23334 3.65347,-0.54383 -0.049,-0.22065 -5.05543,-2.18185 -5.1086,-2.40143 -2.92991,-12.100092 -10.93156,-20.894561 -36.16371,-22.01822 z"
       id="path3349"
       inkscape:connector-curvature="0"
       sodipodi:nodetypes="cccssscscsssccccscsccscsc" />
    <path
       style="fill:#000000;fill-rule:evenodd;stroke:#000000;stroke-width:1px;stroke-linecap:butt;stroke-linejoin:miter;stroke-opacity:1"
       d="m 266.71744,69.595382 c -1.47723,12.372274 -8.64232,20.126396 -13.92857,22.499996 3.61571,9.830782 4.1813,19.038352 0.17856,29.821432 14.84732,4.24463 18.51439,22.75104 20.88182,34.96085 0.17619,0.90866 -2.70043,1.87272 -2.55582,2.70529 0.18722,1.07787 -0.21497,1.96262 0.70185,2.83801 0.46056,0.43975 2.5263,-0.82139 3.85986,-2.05834 1.96035,5.64311 12.43985,-0.42996 2.20158,8.51848 3.8051,0.87259 8.57903,1.4344 8.12501,5.71428 0.63518,0.27278 -1.32441,2.86678 -0.70025,3.13914 0.31285,0.13652 1.14399,1.1647 1.98076,0.97192 1.31917,-0.30391 2.51709,-2.45398 2.99899,-2.2392 24.59007,10.96007 40.13805,21.57099 44.64906,31.521 14.64655,-2.34291 30.69801,2.94504 41.96429,11.96428 6.54227,-5.09999 19.83291,-4.16323 34.04214,-4.93871 1.61511,-7.64291 -6.44814,-20.15676 -11.46394,-29.85684 -7.12101,-8.30528 -18.99647,-15.25278 -23.59688,-19.40522 -0.59774,-0.53954 0.31629,-3.08376 -0.10412,-3.68361 -0.67952,-0.20129 -1.42633,2.2722 -2.18252,2.00528 -5.72982,-2.0225 -26.79567,-4.75893 -36.24377,-13.12119 -8.96499,-10.96547 -4.53333,-8.72218 -22.05806,-23.4997 -6.63704,-12.77236 -8.50134,-20.7644 -11.19428,-32.578001 -0.0701,-0.307281 3.78741,-0.549011 3.7166,-0.859501 -0.049,-0.22065 -5.05543,-2.18185 -5.1086,-2.40143 C 299.95124,79.51351 291.94959,70.719041 266.71744,69.595382 Z"
       id="path3349-2"
       inkscape:connector-curvature="0"
       sodipodi:nodetypes="cccssscccsssccccscsccscsc" />
  </g>
  <g
     inkscape:groupmode="layer"
     id="layer4"
     inkscape:label="Skelet"
     style="display:inline"
     transform="translate(-252.15399,-60.598879)">
    <path
       style="display:inline;fill:none;fill-rule:evenodd;stroke:#999999;stroke-width:1px;stroke-linecap:butt;stroke-linejoin:miter;stroke-opacity:1"
       d="m 372.24121,167.3423 c 3.72588,10.45796 5.57314,21.7134 8.08122,32.19862 0.10319,1.34142 0.32763,1.75327 -0.25254,8.33375 -0.60673,4.1915 -1.30352,8.29293 -2.90419,11.49049"
       id="path4164"
       inkscape:connector-curvature="0"
       sodipodi:nodetypes="cccc" />
    <path
       style="display:inline;fill:none;fill-rule:evenodd;stroke:#999999;stroke-width:1px;stroke-linecap:butt;stroke-linejoin:miter;stroke-opacity:1"
       d="m 329.68853,155.97809 c 0.0426,2.78656 1.03121,9.29187 2.58852,9.02824 19.71541,-3.3375 28.39673,-0.68099 40.34297,2.46225 9.5253,7.35377 18.1395,16.30023 22.22335,21.33947 2.49877,2.25843 5.54513,4.90016 9.72272,8.33376 1.01361,0.86041 1.43387,0.92968 1.74107,0.84821"
       id="path4166"
       inkscape:connector-curvature="0"
       sodipodi:nodetypes="cscccc" />
    <path
       style="display:inline;fill:none;fill-rule:evenodd;stroke:#999999;stroke-width:1px;stroke-linecap:butt;stroke-linejoin:miter;stroke-opacity:1"
       d="m 372.31997,167.67382 c 1.93264,-1.33993 -17.60225,20.52766 -21.22879,23.8704 -4.21995,3.95985 -10.28918,12.37153 -15.71426,16.25"
       id="path4168"
       inkscape:connector-curvature="0"
       sodipodi:nodetypes="ccc" />
    <path
       style="display:inline;fill:none;fill-rule:evenodd;stroke:#999999;stroke-width:1px;stroke-linecap:butt;stroke-linejoin:miter;stroke-opacity:1"
       d="m 311.63206,131.35562 c -7.26508,-4.36532 -11.50521,-6.07179 -12.62691,-7.07107 3.6236,-6.71197 4.81475,-13.10261 2.14657,-29.925772 -5.29156,-8.88085 -10.94004,-17.124326 -18.56155,-21.844544 -0.31084,-0.198255 -0.40539,-0.514493 -0.48929,-0.836533"
       id="path4170"
       inkscape:connector-curvature="0"
       sodipodi:nodetypes="ccccc" />
    <path
       style="display:inline;fill:none;fill-rule:evenodd;stroke:#999999;stroke-width:1px;stroke-linecap:butt;stroke-linejoin:miter;stroke-opacity:1"
       d="m 300.39411,93.853708 c -4.98794,1.238471 -17.52066,7.417812 -27.7792,14.899752 -4.38786,2.79212 -6.87859,3.3564 -10.22779,4.79822 -3.9399,2.30564 -6.25329,5.20274 -8.9651,7.95495 l 0,0"
       id="path4172"
       inkscape:connector-curvature="0"
       sodipodi:nodetypes="ccccc" />
    <path
       style="display:inline;fill:none;fill-rule:evenodd;stroke:#999999;stroke-width:1px;stroke-linecap:butt;stroke-linejoin:miter;stroke-opacity:1"
       d="m 253.04321,92.212208 c 3.45051,-1.14587 9.81142,-2.69994 12.2481,-2.77792 3.39694,0.20053 3.80764,0.21795 7.44987,0.63134 9.08684,0.0212 19.44388,1.14479 27.7792,3.53554"
       id="path4174"
       inkscape:connector-curvature="0"
       sodipodi:nodetypes="cccc" />
    <path
       style="display:inline;fill:none;fill-rule:evenodd;stroke:#999999;stroke-width:1px;stroke-linecap:butt;stroke-linejoin:miter;stroke-opacity:1"
       d="m 296.26975,151.72279 c -1.79915,-0.68157 -3.25137,-0.91768 -4.82143,-0.71429 -7.81653,2.75429 -11.84024,4.42299 -15.8243,6.83307 -1.39924,1.02479 -3.21621,2.97494 -3.95566,3.11958"
       id="path4176"
       inkscape:connector-curvature="0"
       sodipodi:nodetypes="cccc" />
    <path
       style="display:inline;fill:none;fill-rule:evenodd;stroke:#999999;stroke-width:1px;stroke-linecap:butt;stroke-linejoin:miter;stroke-opacity:1"
       d="m 306.71618,161.90136 c -8.95793,6.0011 -13.20915,9.08235 -18.0134,12.52232 -0.8581,0.68725 -1.83166,2.92853 -2.23214,3.59375"
       id="path4178"
       inkscape:connector-curvature="0"
       sodipodi:nodetypes="ccc" />
  </g>
  <g
     inkscape:groupmode="layer"
     id="layer3"
     inkscape:label="Body"
     style="display:inline"
     transform="translate(-252.15399,-60.598879)">
    <path
       id="path4199"
       style="display:inline;fill:#666666;stroke:#666666;stroke-width:0.71566522"
       d="m 337.12954,139.11962 c 0.65042,0.24028 1.22934,1.44352 1.04964,1.79588 -0.17969,0.35236 -1.67833,0.76343 -2.2919,0.2279 -0.37982,-0.33152 -0.58944,-1.03045 -0.34652,-1.47222 0.27014,-0.49121 1.06291,-0.74582 1.58878,-0.55156 z m -25.68122,-7.44148 c -1.17062,0.90779 -7.95508,3.59455 -11.51786,7.76786 -1.65715,1.94112 -4.17626,5.9851 -4.9757,12.9681 -0.2355,2.05714 0.87956,5.70194 2.16507,7.12885 1.23905,1.37534 3.54547,3.19045 6.20349,4.14413 4.45794,1.59947 10.00796,1.36053 13.125,0.84821 3.43019,-0.56379 11.16401,-5.02935 13.83929,-7.90179 1.76706,-1.89729 2.584,-2.74595 3.90625,-3.95089 1.52724,-1.31628 2.81626,-1.91192 3.27742,-2.29779 5.72085,-4.26525 5.63745,-0.94308 4.36919,-7.82042 0.67867,-3.38657 0.71717,-2.56508 2.29787,-5.52102 0.26924,-3.94535 2.27503,-5.28994 2.64778,-7.36866 -1.44815,-0.34442 -4.18163,0.0883 -6.4182,2.36823 0.38634,-2.74374 0.0392,-5.81758 -0.96497,-6.0606 -1.51132,0.32121 -6.17638,1.60241 -9.20463,4.13329 -3.19026,-0.25871 -6.32029,-1.12863 -9.1339,-1.09433 -0.92662,-0.18135 -7.97918,1.22826 -9.6161,2.65683 z"
       inkscape:connector-curvature="0"
       sodipodi:nodetypes="assaacsssssscccccccccc" />
  </g>
</svg>
