<?xml version="1.0" encoding="UTF-8" standalone="no"?>
<!-- Created with Inkscape (http://www.inkscape.org/) -->

<svg
   xmlns:dc="http://purl.org/dc/elements/1.1/"
   xmlns:cc="http://creativecommons.org/ns#"
   xmlns:rdf="http://www.w3.org/1999/02/22-rdf-syntax-ns#"
   xmlns:svg="http://www.w3.org/2000/svg"
   xmlns="http://www.w3.org/2000/svg"
   xmlns:sodipodi="http://sodipodi.sourceforge.net/DTD/sodipodi-0.dtd"
   xmlns:inkscape="http://www.inkscape.org/namespaces/inkscape"
   width="45.064426mm"
   height="42.763344mm"
   viewBox="0 0 159.6771 151.52366"
   id="svg2"
   version="1.1"
   inkscape:version="0.91 r13725"
   sodipodi:docname="Bat2.svg">
  <defs
     id="defs4" />
  <sodipodi:namedview
     id="base"
     pagecolor="#ffffff"
     bordercolor="#666666"
     borderopacity="1.0"
     inkscape:pageopacity="0.0"
     inkscape:pageshadow="2"
     inkscape:zoom="3.959798"
     inkscape:cx="159.89233"
     inkscape:cy="40.328134"
     inkscape:document-units="px"
     inkscape:current-layer="layer2"
     showgrid="false"
     inkscape:window-width="1920"
     inkscape:window-height="1137"
     inkscape:window-x="-8"
     inkscape:window-y="-8"
     inkscape:window-maximized="1"
     showborder="true"
     fit-margin-top="0"
     fit-margin-left="0"
     fit-margin-right="0"
     fit-margin-bottom="0" />
  <metadata
     id="metadata7">
    <rdf:RDF>
      <cc:Work
         rdf:about="">
        <dc:format>image/svg+xml</dc:format>
        <dc:type
           rdf:resource="http://purl.org/dc/dcmitype/StillImage" />
        <dc:title></dc:title>
      </cc:Work>
    </rdf:RDF>
  </metadata>
  <g
     inkscape:groupmode="layer"
     id="layer2"
     inkscape:label="Bat"
     style="display:inline"
     transform="translate(-250.8913,-74.378529)">
    <path
       style="fill:#000000;fill-rule:evenodd;stroke:#000000;stroke-width:1px;stroke-linecap:butt;stroke-linejoin:miter;stroke-opacity:1"
       d="M 14.5625 0.51953125 C 14.562099 0.52288846 14.560949 0.52594035 14.560547 0.52929688 C 14.559884 0.52926735 14.559257 0.52932639 14.558594 0.52929688 C 14.37394 2.0758306 14.101527 3.550444 13.753906 4.9511719 C 13.580096 5.6515358 13.386744 6.3327397 13.177734 6.9960938 C 12.781221 8.2545433 12.320341 9.4411425 11.816406 10.564453 C 11.790484 10.622185 11.768358 10.684816 11.742188 10.742188 C 11.740759 10.745322 11.739711 10.748819 11.738281 10.751953 C 11.471291 11.336725 11.191222 11.904109 10.900391 12.451172 C 10.899049 12.453697 10.897826 12.45646 10.896484 12.458984 C 7.9724061 17.955451 3.9370996 21.536737 0.63476562 23.019531 C 0.63548242 23.02148 0.63600219 23.023442 0.63671875 23.025391 C 0.63467501 23.02631 0.63290256 23.028379 0.63085938 23.029297 C 3.7946056 31.63123 4.6234415 39.75634 2.0996094 48.876953 C 1.7399547 50.176672 1.3112511 51.497371 0.8125 52.841797 C 0.81126202 52.845134 0.8098326 52.848225 0.80859375 52.851562 C 15.655914 57.096192 19.323976 75.60269 21.691406 87.8125 C 21.702418 87.869291 21.700808 87.925243 21.689453 87.982422 C 21.678367 88.038247 21.656567 88.094282 21.626953 88.150391 C 21.250239 88.841845 19.585815 89.551378 19.210938 90.199219 C 19.181655 90.249823 19.158777 90.299794 19.146484 90.349609 C 19.131296 90.405888 19.125182 90.4624 19.134766 90.517578 C 19.321986 91.595448 18.919118 92.480079 19.835938 93.355469 C 20.296497 93.795219 22.363706 92.533825 23.697266 91.296875 C 24.493096 95.595555 24.115076 97.648591 21.166016 104.45703 C 25.863976 103.45462 31.620317 104.01728 34.023438 105.5293 C 34.182232 105.59749 34.178387 105.8099 34.09375 106.0957 C 34.024594 106.32923 33.887424 106.62521 33.753906 106.91602 C 33.725504 106.97781 33.710487 107.02767 33.681641 107.08984 C 33.680032 107.09331 33.679343 107.09614 33.677734 107.09961 C 33.663517 107.13025 33.656739 107.15496 33.642578 107.18555 C 33.325324 107.87055 33.023521 108.53761 33.322266 108.66797 C 33.635116 108.80449 34.465964 109.83341 35.302734 109.64062 C 36.621904 109.33671 37.820834 107.18561 38.302734 107.40039 C 62.892804 118.36046 78.440162 128.97186 82.951172 138.92188 C 97.597722 136.57897 113.64974 141.86748 124.91602 150.88672 C 131.45829 145.78673 144.74975 146.72275 158.95898 145.94727 C 158.95953 145.94468 158.96039 145.94204 158.96094 145.93945 C 158.96159 145.93942 158.96223 145.93949 158.96289 145.93945 C 160.578 138.29654 152.51385 125.78211 147.49805 116.08203 C 140.37704 107.77675 128.50275 100.82822 123.90234 96.675781 C 123.3046 96.136241 124.21729 93.592037 123.79688 92.992188 C 123.62522 92.941339 123.45079 93.064346 123.27148 93.267578 C 123.25687 93.284006 123.24122 93.312577 123.22656 93.330078 C 122.70912 93.952257 122.16482 95.192039 121.61523 94.998047 C 115.88541 92.975547 94.819194 90.239213 85.371094 81.876953 C 85.247435 81.7257 85.181154 81.630681 85.0625 81.484375 C 85.148658 81.426289 85.256712 81.360495 85.316406 81.310547 C 91.03725 77.045293 90.953813 80.365624 89.685547 73.488281 C 90.364218 70.101712 90.403682 70.924694 91.984375 67.96875 C 92.253622 64.023404 94.260064 62.67833 94.632812 60.599609 C 93.184659 60.255187 90.451411 60.686866 88.214844 62.966797 C 88.601185 60.223059 88.252216 57.14927 87.248047 56.90625 C 85.736724 57.227458 81.073169 58.510134 78.044922 61.041016 C 74.854655 60.782302 71.723761 59.911009 68.910156 59.945312 C 68.544703 59.873789 67.219391 60.055841 65.65625 60.382812 C 65.156123 59.955961 64.735577 59.589685 64.191406 59.128906 C 63.893153 58.739818 63.688545 58.487096 63.371094 58.070312 C 61.856711 56.293636 54.954643 37.529906 52.228516 25.703125 C 52.778052 25.463955 55.345594 25.259046 55.769531 25.015625 C 55.77987 25.01039 55.795228 25.005517 55.802734 25 C 55.814724 24.990908 55.812785 24.979908 55.818359 24.970703 C 55.822788 24.963391 55.831894 24.956607 55.832031 24.949219 C 55.832088 24.946177 55.836634 24.942508 55.835938 24.939453 C 55.786938 24.718803 50.779733 22.758643 50.726562 22.539062 C 47.796653 10.438975 39.79465 1.6431902 14.5625 0.51953125 z M 84.542969 69.980469 C 84.695462 69.976243 84.843143 69.996356 84.974609 70.044922 C 85.625026 70.285195 86.205087 71.487484 86.025391 71.839844 C 85.845694 72.192204 84.345989 72.603889 83.732422 72.068359 C 83.3526 71.736845 83.143795 71.037467 83.386719 70.595703 C 83.589323 70.227291 84.08549 69.993147 84.542969 69.980469 z "
       transform="translate(250.89129,74.378529)"
       id="path3349" />
  </g>
  <g
     inkscape:groupmode="layer"
     id="layer3"
     inkscape:label="Body"
     style="display:inline"
     transform="translate(-250.8913,-74.378529)" />
</svg>
