<?xml version="1.0" encoding="UTF-8" standalone="no"?>
<!-- Created with Inkscape (http://www.inkscape.org/) -->

<svg
   xmlns:dc="http://purl.org/dc/elements/1.1/"
   xmlns:cc="http://creativecommons.org/ns#"
   xmlns:rdf="http://www.w3.org/1999/02/22-rdf-syntax-ns#"
   xmlns:svg="http://www.w3.org/2000/svg"
   xmlns="http://www.w3.org/2000/svg"
   xmlns:sodipodi="http://sodipodi.sourceforge.net/DTD/sodipodi-0.dtd"
   xmlns:inkscape="http://www.inkscape.org/namespaces/inkscape"
   width="45.064426mm"
   height="42.763344mm"
   viewBox="0 0 159.6771 151.52366"
   id="svg2"
   version="1.1"
   inkscape:version="0.91 r13725"
   sodipodi:docname="Bat.svg">
  <defs
     id="defs4" />
  <sodipodi:namedview
     id="base"
     pagecolor="#ffffff"
     bordercolor="#666666"
     borderopacity="1.0"
     inkscape:pageopacity="0.0"
     inkscape:pageshadow="2"
     inkscape:zoom="2.8"
     inkscape:cx="20.805561"
     inkscape:cy="-8.3032374"
     inkscape:document-units="px"
     inkscape:current-layer="layer2"
     showgrid="false"
     inkscape:window-width="1920"
     inkscape:window-height="1137"
     inkscape:window-x="-8"
     inkscape:window-y="-8"
     inkscape:window-maximized="1"
     showborder="true"
     fit-margin-top="0"
     fit-margin-left="0"
     fit-margin-right="0"
     fit-margin-bottom="0" />
  <metadata
     id="metadata7">
    <rdf:RDF>
      <cc:Work
         rdf:about="">
        <dc:format>image/svg+xml</dc:format>
        <dc:type
           rdf:resource="http://purl.org/dc/dcmitype/StillImage" />
        <dc:title></dc:title>
      </cc:Work>
    </rdf:RDF>
  </metadata>
  <g
     inkscape:groupmode="layer"
     id="layer2"
     inkscape:label="Bat"
     style="display:inline"
     transform="translate(-250.8913,-74.378529)">
    <path
       style="fill:#000000;fill-rule:evenodd;stroke:#000000;stroke-width:1px;stroke-linecap:butt;stroke-linejoin:miter;stroke-opacity:1"
       d="m 265.45012,74.907859 c -1.47723,12.37227 -8.64232,20.1264 -13.92857,22.5 3.61571,9.830781 4.1813,19.038351 0.17856,29.821431 14.84732,4.24463 18.51439,22.75104 20.88182,34.96085 0.17619,0.90866 -2.70043,1.87272 -2.55582,2.70529 0.18722,1.07787 -0.21497,1.96262 0.70185,2.83801 0.46056,0.43975 1.49951,-0.0178 2.83307,-1.25477 0.79583,4.29868 -1.02998,11.04964 -0.65556,11.7774 0.4201,0.81652 9.60582,0.13977 12.00894,1.65179 0.63518,0.27278 -1.32441,2.86678 -0.70025,3.13914 0.31285,0.13652 1.14399,1.1647 1.98076,0.97192 1.31917,-0.30391 2.51709,-2.45398 2.99899,-2.2392 24.59007,10.96007 40.13805,21.57099 44.64906,31.521 14.64655,-2.34291 30.69801,2.94504 41.96429,11.96428 6.54227,-5.09999 19.83291,-4.16323 34.04214,-4.93871 1.61511,-7.64291 -6.44814,-20.15676 -11.46394,-29.85684 -7.12101,-8.30528 -18.99647,-15.25278 -23.59688,-19.40522 -0.59774,-0.53954 0.31629,-3.08376 -0.10412,-3.68361 -0.67952,-0.20129 -1.42633,2.2722 -2.18252,2.00528 -5.72982,-2.0225 -26.85881,-4.60109 -36.30691,-12.96335 -12.15907,-13.05439 -9.53161,-7.69296 -21.93179,-23.97321 -1.52314,-1.78695 -8.50134,-20.7644 -11.19428,-32.578001 -0.0701,-0.30728 3.72428,-0.23334 3.65347,-0.54383 -0.049,-0.22065 -5.05543,-2.18185 -5.1086,-2.40143 -2.92991,-12.100092 -10.93156,-20.894561 -36.16371,-22.01822 z"
       id="path3349"
       inkscape:connector-curvature="0"
       sodipodi:nodetypes="cccssscscsssccccscsccscsc" />
    <path
       style="fill:#000000;fill-rule:evenodd;stroke:#000000;stroke-width:1px;stroke-linecap:butt;stroke-linejoin:miter;stroke-opacity:1"
       d="m 265.45475,74.898683 c -1.47723,12.372274 -8.64232,20.126396 -13.92857,22.499996 3.61571,9.830781 4.1813,19.038351 0.17856,29.821431 14.84732,4.24463 18.51439,22.75104 20.88182,34.96085 0.17619,0.90866 -2.70043,1.87272 -2.55582,2.70529 0.18722,1.07787 -0.21497,1.96262 0.70185,2.83801 0.46056,0.43975 2.5263,-0.82139 3.85986,-2.05834 1.96035,5.64311 12.43985,-0.42996 2.20158,8.51848 3.8051,0.87259 8.57903,1.4344 8.12501,5.71428 0.63518,0.27278 -1.32441,2.86678 -0.70025,3.13914 0.31285,0.13652 1.14399,1.1647 1.98076,0.97192 1.31917,-0.30391 2.51709,-2.45398 2.99899,-2.2392 24.59007,10.96007 40.13805,21.57099 44.64906,31.521 14.64655,-2.34291 30.69801,2.94504 41.96429,11.96428 6.54227,-5.09999 19.83291,-4.16323 34.04214,-4.93871 1.61511,-7.64291 -6.44814,-20.15676 -11.46394,-29.85684 -7.12101,-8.30528 -18.99647,-15.25278 -23.59688,-19.40522 -0.59774,-0.53954 0.31629,-3.08376 -0.10412,-3.68361 -0.67952,-0.20129 -1.42633,2.2722 -2.18252,2.00528 -5.72982,-2.0225 -26.79567,-4.75893 -36.24377,-13.12119 -8.96499,-10.96547 -4.53333,-8.72218 -22.05806,-23.4997 -6.63704,-12.77236 -8.50134,-20.7644 -11.19428,-32.578 -0.0701,-0.307281 3.78741,-0.549011 3.7166,-0.859501 -0.049,-0.22065 -5.05543,-2.18185 -5.1086,-2.40143 C 298.68855,84.816811 290.6869,76.022342 265.45475,74.898683 Z"
       id="path3349-2"
       inkscape:connector-curvature="0"
       sodipodi:nodetypes="cccssscccsssccccscsccscsc" />
  </g>
  <g
     inkscape:groupmode="layer"
     id="layer4"
     inkscape:label="Skelet"
     style="display:inline"
     transform="translate(-250.8913,-74.378529)">
    <path
       style="display:inline;fill:none;fill-rule:evenodd;stroke:#999999;stroke-width:1px;stroke-linecap:butt;stroke-linejoin:miter;stroke-opacity:1"
       d="m 370.97852,172.6456 c 3.72588,10.45796 5.57314,21.7134 8.08122,32.19862 0.10319,1.34142 0.32763,1.75327 -0.25254,8.33375 -0.60673,4.1915 -1.30352,8.29293 -2.90419,11.49049"
       id="path4164"
       inkscape:connector-curvature="0"
       sodipodi:nodetypes="cccc" />
    <path
       style="display:inline;fill:none;fill-rule:evenodd;stroke:#999999;stroke-width:1px;stroke-linecap:butt;stroke-linejoin:miter;stroke-opacity:1"
       d="m 328.42584,161.28139 c 0.0426,2.78656 1.03121,9.29187 2.58852,9.02824 19.71541,-3.3375 28.39673,-0.68099 40.34297,2.46225 9.5253,7.35377 18.1395,16.30023 22.22335,21.33947 2.49877,2.25843 5.54513,4.90016 9.72272,8.33376 1.01361,0.86041 1.43387,0.92968 1.74107,0.84821"
       id="path4166"
       inkscape:connector-curvature="0"
       sodipodi:nodetypes="cscccc" />
    <path
       style="display:inline;fill:none;fill-rule:evenodd;stroke:#999999;stroke-width:1px;stroke-linecap:butt;stroke-linejoin:miter;stroke-opacity:1"
       d="m 371.05728,172.97712 c 1.93264,-1.33993 -17.60225,20.52766 -21.22879,23.8704 -4.21995,3.95985 -10.28918,12.37153 -15.71426,16.25"
       id="path4168"
       inkscape:connector-curvature="0"
       sodipodi:nodetypes="ccc" />
    <path
       style="display:inline;fill:none;fill-rule:evenodd;stroke:#999999;stroke-width:1px;stroke-linecap:butt;stroke-linejoin:miter;stroke-opacity:1"
       d="m 310.36937,136.65892 c -7.26508,-4.36532 -11.50521,-6.07179 -12.62691,-7.07107 3.6236,-6.71197 4.81475,-13.10261 2.14657,-29.925771 -5.29156,-8.88085 -10.94004,-17.124326 -18.56155,-21.844544 -0.31084,-0.198255 -0.40539,-0.514493 -0.48929,-0.836533"
       id="path4170"
       inkscape:connector-curvature="0"
       sodipodi:nodetypes="ccccc" />
    <path
       style="display:inline;fill:none;fill-rule:evenodd;stroke:#999999;stroke-width:1px;stroke-linecap:butt;stroke-linejoin:miter;stroke-opacity:1"
       d="m 299.13142,99.157009 c -4.98794,1.238471 -17.52066,7.417811 -27.7792,14.899751 -4.38786,2.79212 -6.87859,3.3564 -10.22779,4.79822 -3.9399,2.30564 -6.25329,5.20274 -8.9651,7.95495 l 0,0"
       id="path4172"
       inkscape:connector-curvature="0"
       sodipodi:nodetypes="ccccc" />
    <path
       style="display:inline;fill:none;fill-rule:evenodd;stroke:#999999;stroke-width:1px;stroke-linecap:butt;stroke-linejoin:miter;stroke-opacity:1"
       d="m 251.78052,97.515509 c 3.45051,-1.14587 9.81142,-2.69994 12.2481,-2.77792 3.39694,0.20053 3.80764,0.21795 7.44987,0.63134 9.08684,0.0212 19.44388,1.14479 27.7792,3.53554"
       id="path4174"
       inkscape:connector-curvature="0"
       sodipodi:nodetypes="cccc" />
    <path
       style="display:inline;fill:none;fill-rule:evenodd;stroke:#999999;stroke-width:1px;stroke-linecap:butt;stroke-linejoin:miter;stroke-opacity:1"
       d="m 295.00706,157.02609 c -1.79915,-0.68157 -3.25137,-0.91768 -4.82143,-0.71429 -7.81653,2.75429 -11.84024,4.42299 -15.8243,6.83307 -1.39924,1.02479 -3.21621,2.97494 -3.95566,3.11958"
       id="path4176"
       inkscape:connector-curvature="0"
       sodipodi:nodetypes="cccc" />
    <path
       style="display:inline;fill:none;fill-rule:evenodd;stroke:#999999;stroke-width:1px;stroke-linecap:butt;stroke-linejoin:miter;stroke-opacity:1"
       d="m 305.45349,167.20466 c -8.95793,6.0011 -13.20915,9.08235 -18.0134,12.52232 -0.8581,0.68725 -1.83166,2.92853 -2.23214,3.59375"
       id="path4178"
       inkscape:connector-curvature="0"
       sodipodi:nodetypes="ccc" />
  </g>
  <g
     inkscape:groupmode="layer"
     id="layer3"
     inkscape:label="Body"
     style="display:inline"
     transform="translate(-250.8913,-74.378529)">
    <path
       id="path4199"
       transform="matrix(0.45431158,-0.89084285,0.87230373,0.48896442,0,0)"
       style="display:inline;fill:#666666;stroke:#666666;stroke-width:0.71594173"
       d="m 38.275841,365.09954 c 0.108523,0.68911 -0.658589,1.75231 -1.054124,1.75231 -0.395536,0 -1.487736,-1.14919 -1.320475,-1.93969 0.103542,-0.48935 0.611123,-0.99401 1.115646,-0.97829 0.561012,0.0175 1.171211,0.60852 1.258953,1.16567 z m -6.070655,-26.27898 c -1.365314,-0.6309 -7.03072,-5.45789 -12.417346,-6.73677 -2.505468,-0.59485 -7.268478,-1.00207 -13.7556836,1.46011 -1.9110802,0.72535 -4.5472643,3.37662 -5.16387074,5.17145 -0.5943218,1.72997 -1.05024098,4.61148 -0.58210023,7.41479 0.78515207,4.70162 3.70960327,9.54099 5.68214687,12.087 2.1707134,2.80179 9.8535337,7.66641 13.6702387,8.74551 2.520989,0.71276 3.661614,1.05524 5.360533,1.68622 1.896426,0.76312 3.047179,1.64151 3.6097,1.87721 6.522923,3.16106 3.581931,4.59718 8.965083,0.33961 3.288503,-0.93469 2.5902,-0.52686 5.944174,-0.46158 3.575954,-1.55376 5.731269,-0.37687 7.728348,-0.98967 -0.40797,-1.44767 -2.123333,-3.68791 -5.208109,-4.64528 2.584276,-0.90304 5.0978,-2.61009 4.818569,-3.61583 -1.019962,-1.20135 -4.421233,-4.77788 -8.112486,-6.32696 -1.335281,-2.96185 -2.107516,-6.14789 -3.514278,-8.64071 -0.29512,-0.90857 -4.976794,-6.55525 -7.024919,-7.3651 z"
       inkscape:connector-curvature="0"
       sodipodi:nodetypes="assaacsssssscccccccccc" />
  </g>
</svg>
