<?xml version="1.0" encoding="UTF-8" standalone="no"?>
<!-- Generator: Adobe Illustrator 19.1.0, SVG Export Plug-In . SVG Version: 6.00 Build 0)  -->

<svg
   xmlns:dc="http://purl.org/dc/elements/1.1/"
   xmlns:cc="http://creativecommons.org/ns#"
   xmlns:rdf="http://www.w3.org/1999/02/22-rdf-syntax-ns#"
   xmlns:svg="http://www.w3.org/2000/svg"
   xmlns="http://www.w3.org/2000/svg"
   xmlns:sodipodi="http://sodipodi.sourceforge.net/DTD/sodipodi-0.dtd"
   xmlns:inkscape="http://www.inkscape.org/namespaces/inkscape"
   version="1.1"
   id="Capa_1"
   x="0px"
   y="0px"
   viewBox="0 0 811.78205 265.31304"
   xml:space="preserve"
   inkscape:version="0.91 r13725"
   sodipodi:docname="Connect.svg"
   width="649.42566pt"
   height="212.25043pt"><metadata
     id="metadata4287"><rdf:RDF><cc:Work
         rdf:about=""><dc:format>image/svg+xml</dc:format><dc:type
           rdf:resource="http://purl.org/dc/dcmitype/StillImage" /><dc:title></dc:title></cc:Work></rdf:RDF></metadata><defs
     id="defs4285" /><sodipodi:namedview
     pagecolor="#ffffff"
     bordercolor="#666666"
     borderopacity="1"
     objecttolerance="10"
     gridtolerance="10"
     guidetolerance="10"
     inkscape:pageopacity="0"
     inkscape:pageshadow="2"
     inkscape:window-width="1824"
     inkscape:window-height="1153"
     id="namedview4283"
     showgrid="false"
     showguides="true"
     inkscape:guide-bbox="true"
     inkscape:snap-to-guides="true"
     inkscape:snap-nodes="true"
     inkscape:snap-others="true"
     inkscape:snap-bbox="false"
     inkscape:bbox-paths="true"
     inkscape:bbox-nodes="true"
     inkscape:snap-bbox-edge-midpoints="true"
     inkscape:snap-bbox-midpoints="true"
     inkscape:object-paths="true"
     inkscape:snap-intersection-paths="true"
     inkscape:object-nodes="true"
     inkscape:snap-smooth-nodes="true"
     inkscape:snap-object-midpoints="true"
     inkscape:snap-center="true"
     inkscape:snap-text-baseline="true"
     fit-margin-top="0"
     fit-margin-left="0"
     fit-margin-right="0"
     fit-margin-bottom="0"
     inkscape:zoom="0.77256984"
     inkscape:cx="200.63105"
     inkscape:cy="-26.509822"
     inkscape:window-x="-8"
     inkscape:window-y="-8"
     inkscape:window-maximized="1"
     inkscape:current-layer="Capa_1"
     units="pt" /><g
     id="g4249"
     transform="matrix(0,-1,1,0,395.47343,296.25214)"><path
       d="m 205.55469,66 c -34.358,0 -48.32032,24.723375 -48.32031,55.10938 l -0.0137,45.3457 0.006,0 -0.006,15.90234 c 0,23.297 -12.43673,42.26172 -37.55273,42.26172 -25.110001,0 -37.541017,-18.96472 -37.541017,-42.26172 l 0,-172.892576 7.269531,0 c 7.095,0 12.845706,-5.759469 12.845706,-12.855469 l 0,-57.839844 -8.830081,0 0,-20.886718 -35.353515,0 0,20.886718 -8.835938,0 0.0059,57.841797 c 0,7.095 5.757516,12.853516 12.853516,12.853516 l 7.19336,0 0,172.892576 c 0,30.392 18.196531,55.11719 50.394528,55.11719 32.205,0 50.40625,-24.73019 50.40625,-55.11719 l 0.006,-19.41797 -0.006,0 0.0137,-41.83593 c 0,-23.297004 8.1918,-42.255864 35.4668,-42.255864 27.275,0 39.4668,18.95886 39.4668,42.255864 l 0,127.5996 -16.65821,0 c -11.986,0 -21.70312,9.72366 -21.70312,21.72266 l 0,97.73242 14.92383,0 0,48.15039 59.72461,0 0,-48.15039 14.93554,0 0,-97.73242 0.006,0 c 0,-11.999 -9.74447,-21.72461 -21.73047,-21.72461 l -16.64453,0 0,-127.59179 C 257.8771,90.716375 239.91269,66 205.55469,66 Z M 66.177734,-76.939453 l 5.230469,0 0,9.470703 -5.230469,0 z m 13.953125,0 5.236329,0 0,9.470703 -5.236329,0 z m -23.689453,22.083984 0.0059,0 37.923828,0 0,50.396485 c 0,2.903972 -2.357656,5.265625 -5.253906,5.265625 l -27.40625,0 c -2.90753,0 -5.154378,-2.3639371 -5.269532,-5.265625 l 0,-50.396485 z m 171.929684,316.412109 46.15821,0 c 4.897,0 8.875,3.97814 8.875,8.86914 l 0,84.87891 -0.006,0 -63.87696,0 0,-84.87891 c 0,-4.891 3.97161,-8.86914 8.84961,-8.86914 z m 6.04883,123.58789 9.28516,0 0,16.81836 -9.28516,0 z m 24.77344,0 9.30078,0 0,16.81836 -9.30078,0 z"
       id="path4850"
       inkscape:connector-curvature="0"
       sodipodi:nodetypes="sccccsscsscccccccscssccccsscssccccccccscsscccccccccccccsssscccsscccssccccccccccc" /></g><g
     id="g4253"
     transform="translate(395.47343,-9.22247)" /><g
     id="g4255"
     transform="translate(395.47343,-9.22247)" /><g
     id="g4257"
     transform="translate(395.47343,-9.22247)" /><g
     id="g4259"
     transform="translate(395.47343,-9.22247)" /><g
     id="g4261"
     transform="translate(395.47343,-9.22247)" /><g
     id="g4263"
     transform="translate(395.47343,-9.22247)" /><g
     id="g4265"
     transform="translate(395.47343,-9.22247)" /><g
     id="g4267"
     transform="translate(395.47343,-9.22247)" /><g
     id="g4269"
     transform="translate(395.47343,-9.22247)" /><g
     id="g4271"
     transform="translate(395.47343,-9.22247)" /><g
     id="g4273"
     transform="translate(395.47343,-9.22247)" /><g
     id="g4275"
     transform="translate(395.47343,-9.22247)" /><g
     id="g4277"
     transform="translate(395.47343,-9.22247)" /><g
     id="g4279"
     transform="translate(395.47343,-9.22247)" /><g
     id="g4281"
     transform="translate(395.47343,-9.22247)" /><path
     style="fill:none;fill-rule:evenodd;stroke:#000000;stroke-width:5.80000019;stroke-linecap:butt;stroke-linejoin:round;stroke-miterlimit:4;stroke-dasharray:none;stroke-opacity:1"
     d="m 263.50811,198.60381 -27.86328,21.68164 27.86328,21.67968 0,-15.12695 39.60351,0 0,-6.55273 0,-6.55274 -39.60351,0 z"
     id="path4929"
     inkscape:connector-curvature="0"
     sodipodi:nodetypes="ccccccccc" /><g
     id="g4962"
     transform="translate(361.47343,-9.22247)"><path
       sodipodi:nodetypes="ccccccccc"
       inkscape:connector-curvature="0"
       id="rect4902"
       d="m -358.52346,271.5855 211.6493,0 -2e-5,-19.65841 7.73034,0 0,-44.37303 -7.73034,0 2e-5,-116.539249 -211.6493,0 z"
       style="opacity:1;fill:none;fill-opacity:1;stroke:#000000;stroke-width:5.9000001;stroke-linecap:round;stroke-linejoin:round;stroke-miterlimit:4;stroke-dasharray:none;stroke-dashoffset:11.87999916;stroke-opacity:1" /><g
       transform="translate(-581.51251,34.115441)"
       style="display:inline"
       inkscape:label="Bat"
       id="layer2"><path
         id="path3349"
         transform="translate(250.89129,74.378529)"
         d="m 14.5625,0.51953125 c -4.01e-4,0.003357 -0.0016,0.006409 -0.002,0.009766 -6.63e-4,-2.953e-5 -0.0013,2.951e-5 -0.002,0 -0.18456,1.54653335 -0.456973,3.02114675 -0.804594,4.42187465 -0.17381,0.7003639 -0.367162,1.3815678 -0.576172,2.0449219 -0.396513,1.2584495 -0.857393,2.4450487 -1.361328,3.5683592 -0.02592,0.05773 -0.04805,0.120363 -0.07422,0.177735 -0.0014,0.0031 -0.0025,0.0066 -0.0039,0.0098 -0.26699,0.584772 -0.547059,1.152156 -0.83789,1.699219 -0.0013,0.0025 -0.0026,0.0053 -0.0039,0.0078 -2.9240779,5.496467 -6.9593844,9.077753 -10.26171838,10.560547 7.168e-4,0.0019 0.001237,0.0039 0.001953,0.0059 -0.002044,9.19e-4 -0.003816,0.003 -0.005859,0.0039 C 3.7946056,31.63123 4.6234415,39.75634 2.0996094,48.876953 1.7399547,50.176672 1.3112511,51.497371 0.8125,52.841797 c -0.001238,0.0033 -0.002667,0.0064 -0.003906,0.0098 14.84732,4.244595 18.515382,22.751093 20.882812,34.960903 0.01101,0.05679 0.0094,0.112743 -0.002,0.169922 -0.01109,0.05582 -0.03289,0.11186 -0.0625,0.167969 -0.376714,0.691454 -2.041138,1.400987 -2.416015,2.048828 -0.02928,0.0506 -0.05216,0.100575 -0.06445,0.15039 -0.01519,0.05628 -0.0213,0.112791 -0.01172,0.167969 0.18722,1.07787 -0.215648,1.962501 0.701172,2.837891 0.460559,0.43975 2.527768,-0.821644 3.861328,-2.058594 0.79583,4.29868 0.41781,6.351716 -2.53125,13.160155 4.69796,-1.00241 10.454301,-0.43975 12.857422,1.07227 0.158794,0.0682 0.154949,0.2806 0.07031,0.5664 -0.06916,0.23353 -0.206326,0.52951 -0.339844,0.82032 -0.0284,0.0618 -0.04342,0.11165 -0.07227,0.17382 -0.0016,0.003 -0.0023,0.006 -0.0039,0.01 -0.01422,0.0306 -0.02099,0.0554 -0.03516,0.0859 -0.317254,0.685 -0.619057,1.35206 -0.320312,1.48242 0.31285,0.13652 1.143698,1.16544 1.980468,0.97265 1.31917,-0.30391 2.5181,-2.45501 3,-2.24023 24.59007,10.96007 40.137428,21.57147 44.648438,31.52149 14.64655,-2.34291 30.698567,2.9456 41.964847,11.96484 6.54227,-5.09999 19.83373,-4.16397 34.04296,-4.93945 5.5e-4,-0.003 0.001,-0.005 0.002,-0.008 6.5e-4,-3e-5 0.001,4e-5 0.002,0 1.61511,-7.64291 -6.44904,-20.15734 -11.46484,-29.85742 -7.12101,-8.30528 -18.9953,-15.25381 -23.59571,-19.406249 -0.59774,-0.53954 0.31495,-3.083744 -0.10546,-3.683593 -0.17166,-0.05085 -0.34609,0.07216 -0.5254,0.27539 -0.0146,0.01643 -0.0303,0.045 -0.0449,0.0625 -0.51744,0.622179 -1.06174,1.861961 -1.61133,1.667969 -5.72982,-2.0225 -26.796035,-4.758834 -36.244135,-13.121094 -0.123659,-0.151253 -0.18994,-0.246272 -0.308594,-0.392578 0.08616,-0.05809 0.194212,-0.12388 0.253906,-0.173828 5.720844,-4.265254 5.637407,-0.944923 4.369141,-7.822266 0.678671,-3.386569 0.718135,-2.563587 2.298828,-5.519531 0.269247,-3.945346 2.275689,-5.29042 2.648437,-7.369141 -1.448153,-0.344422 -4.181401,0.08726 -6.417968,2.367188 0.386341,-2.743738 0.03737,-5.817527 -0.966797,-6.060547 -1.511323,0.321208 -6.174878,1.603884 -9.203125,4.134766 -3.190267,-0.258714 -6.321161,-1.130007 -9.134766,-1.095704 -0.365453,-0.07152 -1.690765,0.110529 -3.253906,0.4375 -0.500127,-0.426851 -0.920673,-0.793127 -1.464844,-1.253906 -0.298253,-0.389088 -0.502861,-0.64181 -0.820312,-1.058594 -1.514383,-1.776676 -8.416451,-20.540406 -11.142578,-32.367187 0.549536,-0.23917 3.117078,-0.444079 3.541015,-0.6875 0.01034,-0.0052 0.0257,-0.01011 0.0332,-0.01563 0.01199,-0.0091 0.01005,-0.02009 0.01563,-0.0293 0.0044,-0.0073 0.01353,-0.0141 0.01367,-0.02148 5.7e-5,-0.003 0.0046,-0.0067 0.0039,-0.0098 -0.049,-0.22065 -5.056205,-2.18081 -5.109376,-2.400391 C 47.796653,10.438975 39.79465,1.6431902 14.5625,0.51953125 Z M 84.542969,69.980469 c 0.152493,-0.0042 0.300174,0.01589 0.43164,0.06445 0.650417,0.240273 1.230478,1.442562 1.050782,1.794922 -0.179697,0.35236 -1.679402,0.764045 -2.292969,0.228515 -0.379822,-0.331514 -0.588627,-1.030892 -0.345703,-1.472656 0.202604,-0.368412 0.698771,-0.602556 1.15625,-0.615234 z"
         style="fill:#000000;fill-rule:evenodd;stroke:#000000;stroke-width:1px;stroke-linecap:butt;stroke-linejoin:miter;stroke-opacity:1"
         inkscape:connector-curvature="0" /></g><g
       transform="translate(-581.51251,34.115441)"
       style="display:inline"
       inkscape:label="Body"
       id="layer3" /></g></svg>