G04 Layer_Color=15132400*
%FSAX24Y24*%
%MOIN*%
G70*
G01*
G75*
%ADD10C,0.0100*%
%ADD29C,0.0060*%
%ADD52C,0.0079*%
%ADD53C,0.0098*%
%ADD54C,0.0039*%
%ADD55C,0.0050*%
%ADD56C,0.0080*%
G36*
X037145Y033010D02*
X037175Y033000D01*
X037200Y032980D01*
X037205Y032975D01*
X037220Y032950D01*
X037230Y032915D01*
X037235Y032860D01*
Y032855D01*
Y032845D01*
X037230Y032810D01*
X037220Y032770D01*
X037210Y032755D01*
X037200Y032740D01*
X037195Y032735D01*
X037180Y032720D01*
X037150Y032700D01*
X037110Y032695D01*
X037100D01*
X037075Y032700D01*
X037045Y032715D01*
X037010Y032740D01*
X037005Y032750D01*
X036995Y032770D01*
X036985Y032810D01*
X036980Y032860D01*
Y032865D01*
Y032875D01*
X036985Y032905D01*
X036995Y032940D01*
X037010Y032980D01*
X037015Y032985D01*
X037035Y033000D01*
X037065Y033010D01*
X037110Y033015D01*
X037120D01*
X037145Y033010D01*
D02*
G37*
G36*
X039370Y032510D02*
X039390Y032500D01*
X039340Y032440D01*
X039335Y032445D01*
X039330Y032450D01*
X039315Y032455D01*
X039300Y032460D01*
X039290D01*
X039270Y032450D01*
X039250Y032430D01*
X039245Y032415D01*
X039240Y032390D01*
Y032205D01*
X039180D01*
Y032520D01*
X039240D01*
Y032485D01*
X039245Y032490D01*
X039265Y032505D01*
X039290Y032515D01*
X039330Y032520D01*
X039350D01*
X039370Y032510D01*
D02*
G37*
G36*
X037755Y033010D02*
X037780Y033000D01*
X037800Y032985D01*
X037825Y032960D01*
X037840Y032930D01*
X037845Y032885D01*
Y032830D01*
X037650D01*
Y032825D01*
Y032820D01*
X037660Y032790D01*
X037680Y032765D01*
X037695Y032755D01*
X037720Y032750D01*
X037730D01*
X037745Y032755D01*
X037770Y032765D01*
X037790Y032790D01*
X037840Y032745D01*
X037830Y032735D01*
X037805Y032720D01*
X037770Y032705D01*
X037725Y032695D01*
X037720D01*
X037705Y032700D01*
X037680Y032705D01*
X037655Y032715D01*
X037630Y032735D01*
X037605Y032765D01*
X037590Y032805D01*
X037585Y032860D01*
Y032865D01*
Y032885D01*
X037590Y032910D01*
X037600Y032940D01*
X037615Y032965D01*
X037640Y032990D01*
X037670Y033010D01*
X037710Y033015D01*
X037730D01*
X037755Y033010D01*
D02*
G37*
G36*
X039905D02*
X039930Y033000D01*
X039950Y032985D01*
X039975Y032960D01*
X039990Y032930D01*
X039995Y032885D01*
Y032830D01*
X039795D01*
Y032825D01*
Y032820D01*
X039805Y032790D01*
X039815Y032775D01*
X039825Y032765D01*
X039845Y032755D01*
X039870Y032750D01*
X039880D01*
X039895Y032755D01*
X039915Y032765D01*
X039935Y032790D01*
X039985Y032745D01*
X039975Y032735D01*
X039950Y032720D01*
X039915Y032705D01*
X039870Y032695D01*
X039865D01*
X039850Y032700D01*
X039825Y032705D01*
X039800Y032715D01*
X039775Y032735D01*
X039750Y032765D01*
X039735Y032805D01*
X039730Y032860D01*
Y032865D01*
Y032885D01*
X039735Y032910D01*
X039745Y032940D01*
X039760Y032965D01*
X039785Y032990D01*
X039815Y033010D01*
X039860Y033015D01*
X039880D01*
X039905Y033010D01*
D02*
G37*
G36*
X038790D02*
X038820Y033000D01*
X038845Y032980D01*
X038850Y032975D01*
X038865Y032950D01*
X038875Y032915D01*
X038880Y032860D01*
Y032855D01*
Y032845D01*
X038875Y032810D01*
X038865Y032770D01*
X038855Y032755D01*
X038845Y032740D01*
X038840Y032735D01*
X038825Y032720D01*
X038795Y032700D01*
X038755Y032695D01*
X038745D01*
X038720Y032700D01*
X038690Y032715D01*
X038655Y032740D01*
X038650Y032745D01*
X038640Y032770D01*
X038630Y032805D01*
X038625Y032860D01*
Y032865D01*
Y032875D01*
X038630Y032905D01*
X038640Y032945D01*
X038655Y032980D01*
X038660Y032985D01*
X038680Y033000D01*
X038710Y033010D01*
X038755Y033015D01*
X038765D01*
X038790Y033010D01*
D02*
G37*
G36*
X038370Y032205D02*
X038305D01*
Y032235D01*
X038300Y032230D01*
X038285Y032220D01*
X038260Y032205D01*
X038230Y032200D01*
X038220D01*
X038195Y032205D01*
X038170Y032215D01*
X038145Y032240D01*
X038140Y032245D01*
X038135Y032265D01*
X038130Y032280D01*
Y032305D01*
X038125Y032330D01*
Y032365D01*
Y032370D01*
Y032380D01*
Y032395D01*
X038130Y032415D01*
X038135Y032455D01*
X038140Y032475D01*
X038145Y032485D01*
X038150Y032490D01*
X038165Y032505D01*
X038190Y032515D01*
X038230Y032520D01*
X038240D01*
X038255Y032515D01*
X038280Y032505D01*
X038305Y032485D01*
Y032645D01*
X038370D01*
Y032205D01*
D02*
G37*
G36*
X037750Y032515D02*
X037775Y032510D01*
X037795Y032495D01*
X037820Y032480D01*
X037835Y032455D01*
X037840Y032420D01*
Y032205D01*
X037775D01*
Y032235D01*
X037770Y032230D01*
X037760Y032220D01*
X037735Y032205D01*
X037700Y032200D01*
X037680D01*
X037665Y032205D01*
X037645Y032215D01*
X037620Y032225D01*
X037605Y032240D01*
X037590Y032265D01*
X037585Y032300D01*
Y032305D01*
Y032315D01*
X037600Y032345D01*
X037610Y032360D01*
X037630Y032375D01*
X037655Y032385D01*
X037690Y032390D01*
X037775D01*
Y032420D01*
Y032425D01*
X037765Y032440D01*
X037750Y032455D01*
X037730Y032460D01*
X037690D01*
X037670Y032450D01*
X037650Y032440D01*
X037600Y032475D01*
X037605Y032480D01*
X037625Y032500D01*
X037660Y032515D01*
X037705Y032520D01*
X037725D01*
X037750Y032515D01*
D02*
G37*
G36*
X039565D02*
X039590Y032505D01*
X039610Y032490D01*
X039635Y032465D01*
X039650Y032435D01*
X039655Y032390D01*
Y032335D01*
X039455D01*
Y032330D01*
Y032325D01*
X039465Y032295D01*
X039485Y032270D01*
X039500Y032260D01*
X039525Y032255D01*
X039535D01*
X039555Y032260D01*
X039575Y032270D01*
X039595Y032290D01*
X039645Y032250D01*
X039635Y032240D01*
X039615Y032225D01*
X039580Y032210D01*
X039535Y032200D01*
X039530D01*
X039515Y032205D01*
X039490Y032210D01*
X039465Y032220D01*
X039435Y032240D01*
X039415Y032270D01*
X039395Y032310D01*
X039390Y032365D01*
Y032370D01*
Y032390D01*
X039395Y032415D01*
X039405Y032445D01*
X039420Y032470D01*
X039445Y032495D01*
X039475Y032515D01*
X039520Y032520D01*
X039540D01*
X039565Y032515D01*
D02*
G37*
G36*
X039020D02*
X039045Y032510D01*
X039065Y032495D01*
X039085Y032480D01*
X039100Y032455D01*
X039105Y032420D01*
Y032205D01*
X039045D01*
Y032235D01*
X039040Y032230D01*
X039030Y032220D01*
X039005Y032205D01*
X038965Y032200D01*
X038950D01*
X038930Y032205D01*
X038910Y032215D01*
X038890Y032225D01*
X038870Y032240D01*
X038860Y032265D01*
X038855Y032300D01*
Y032305D01*
Y032315D01*
X038870Y032345D01*
X038880Y032360D01*
X038900Y032375D01*
X038925Y032385D01*
X038960Y032390D01*
X039045D01*
Y032420D01*
Y032425D01*
X039035Y032440D01*
X039020Y032455D01*
X039000Y032460D01*
X038955D01*
X038940Y032450D01*
X038925Y032440D01*
X038875Y032475D01*
X038880Y032480D01*
X038900Y032500D01*
X038930Y032515D01*
X038955Y032520D01*
X039000D01*
X039020Y032515D01*
D02*
G37*
G36*
X038100Y032510D02*
X038125Y032500D01*
X038075Y032440D01*
X038070Y032445D01*
X038060Y032450D01*
X038045Y032455D01*
X038030Y032460D01*
X038020D01*
X038005Y032450D01*
X037985Y032430D01*
X037980Y032415D01*
X037975Y032390D01*
Y032205D01*
X037910D01*
Y032520D01*
X037975D01*
Y032485D01*
X037980Y032490D01*
X037995Y032505D01*
X038015Y032515D01*
X038050Y032520D01*
X038075D01*
X038100Y032510D01*
D02*
G37*
G36*
X038755Y032205D02*
X038700D01*
X038625Y032425D01*
X038565Y032205D01*
X038505D01*
X038405Y032520D01*
X038470D01*
X038535Y032300D01*
X038605Y032520D01*
X038655D01*
X038725Y032300D01*
X038780Y032520D01*
X038855D01*
X038755Y032205D01*
D02*
G37*
G36*
X038100Y033000D02*
X038115Y032990D01*
X038135Y032970D01*
X038145Y032945D01*
X038150Y032910D01*
Y032705D01*
X038090D01*
Y032885D01*
Y032890D01*
Y032895D01*
X038080Y032925D01*
X038065Y032950D01*
X038045Y032955D01*
X038025Y032960D01*
X038015D01*
X037995Y032950D01*
X037980Y032940D01*
X037970Y032930D01*
X037965Y032910D01*
X037960Y032885D01*
Y032705D01*
X037895D01*
Y033015D01*
X037960D01*
Y032980D01*
X037965Y032985D01*
X037980Y033000D01*
X038005Y033010D01*
X038045Y033015D01*
X038060D01*
X038100Y033000D01*
D02*
G37*
G36*
X037465Y033010D02*
X037490Y033000D01*
X037520Y032980D01*
X037525Y032975D01*
X037530Y032950D01*
X037535Y032915D01*
X037540Y032860D01*
Y032855D01*
Y032845D01*
Y032810D01*
X037530Y032770D01*
X037525Y032755D01*
X037520Y032740D01*
X037515Y032735D01*
X037495Y032720D01*
X037465Y032700D01*
X037435Y032695D01*
X037430D01*
X037410Y032700D01*
X037385Y032710D01*
X037350Y032730D01*
Y032485D01*
X037355Y032490D01*
X037370Y032505D01*
X037395Y032515D01*
X037435Y032520D01*
X037450D01*
X037470Y032515D01*
X037490Y032505D01*
X037505Y032495D01*
X037525Y032475D01*
X037535Y032445D01*
X037540Y032410D01*
Y032205D01*
X037480D01*
Y032390D01*
Y032395D01*
Y032400D01*
X037470Y032425D01*
X037455Y032450D01*
X037435Y032455D01*
X037415Y032460D01*
X037405D01*
X037385Y032450D01*
X037360Y032430D01*
X037355Y032415D01*
X037350Y032390D01*
Y032205D01*
X037295D01*
Y033015D01*
X037350D01*
Y032980D01*
X037355Y032985D01*
X037375Y033000D01*
X037400Y033010D01*
X037435Y033015D01*
X037445D01*
X037465Y033010D01*
D02*
G37*
G36*
X038500D02*
X038540Y032995D01*
X038575Y032970D01*
X038540Y032930D01*
X038530Y032935D01*
X038510Y032945D01*
X038480Y032955D01*
X038455Y032960D01*
X038445D01*
X038430Y032955D01*
X038410Y032945D01*
X038405Y032935D01*
X038400Y032920D01*
Y032915D01*
X038405Y032910D01*
X038415Y032900D01*
X038440Y032895D01*
X038500Y032885D01*
X038505D01*
X038515Y032880D01*
X038545Y032870D01*
X038560Y032860D01*
X038575Y032845D01*
X038585Y032820D01*
X038590Y032795D01*
Y032790D01*
Y032780D01*
X038585Y032765D01*
X038575Y032745D01*
X038555Y032725D01*
X038535Y032710D01*
X038500Y032700D01*
X038455Y032695D01*
X038445D01*
X038410Y032700D01*
X038365Y032720D01*
X038345Y032730D01*
X038320Y032750D01*
X038365Y032795D01*
X038370Y032790D01*
X038395Y032775D01*
X038425Y032755D01*
X038465Y032750D01*
X038475D01*
X038495Y032755D01*
X038515Y032770D01*
X038525Y032780D01*
Y032795D01*
Y032800D01*
X038520Y032805D01*
X038510Y032820D01*
X038485Y032830D01*
X038425D01*
X038415Y032835D01*
X038385Y032845D01*
X038355Y032875D01*
X038345Y032895D01*
X038340Y032920D01*
Y032925D01*
Y032935D01*
X038345Y032950D01*
X038355Y032970D01*
X038370Y032985D01*
X038390Y033000D01*
X038415Y033010D01*
X038455Y033015D01*
X038470D01*
X038500Y033010D01*
D02*
G37*
G36*
X039963Y026726D02*
X040047Y026720D01*
X040123Y026710D01*
X040193Y026696D01*
X040257Y026683D01*
X040313Y026666D01*
X040367Y026653D01*
X040410Y026636D01*
X040450Y026620D01*
X040483Y026606D01*
X040513Y026590D01*
X040533Y026580D01*
X040553Y026570D01*
X040563Y026560D01*
X040570Y026556D01*
X040573Y026553D01*
X040610Y026523D01*
X040643Y026490D01*
X040697Y026423D01*
X040743Y026356D01*
X040777Y026293D01*
X040800Y026236D01*
X040810Y026213D01*
X040817Y026193D01*
X040823Y026176D01*
X040827Y026163D01*
X040830Y026156D01*
Y026153D01*
X040833Y026150D01*
X040840Y026146D01*
X040863Y026136D01*
X040887Y026126D01*
X040893Y026123D01*
X040897D01*
X040920Y026113D01*
X040937Y026106D01*
X040947Y026100D01*
X040957Y026096D01*
X040963Y026090D01*
Y026086D01*
X040953Y026083D01*
X040940D01*
X040927Y026080D01*
X040920D01*
X040897Y026076D01*
X040880Y026073D01*
X040873Y026070D01*
X040870D01*
X040893Y025980D01*
X040920Y025886D01*
X040947Y025800D01*
X040970Y025716D01*
X040983Y025680D01*
X040993Y025646D01*
X041003Y025616D01*
X041013Y025593D01*
X041020Y025573D01*
X041027Y025556D01*
X041030Y025546D01*
Y025543D01*
X041050Y025493D01*
X041067Y025446D01*
X041083Y025406D01*
X041097Y025370D01*
X041107Y025340D01*
X041120Y025313D01*
X041130Y025290D01*
X041136Y025270D01*
X041143Y025256D01*
X041150Y025243D01*
X041157Y025226D01*
X041163Y025220D01*
Y025216D01*
X041170Y025203D01*
X041173Y025200D01*
X041183Y025190D01*
X041186Y025186D01*
X041203Y025173D01*
X041206Y025170D01*
X041220Y025160D01*
X041223Y025156D01*
X041227Y025153D01*
X041246Y025160D01*
X041263Y025163D01*
X041280D01*
X041296Y025166D01*
X041313D01*
X041353Y025163D01*
X041390Y025160D01*
X041403Y025156D01*
X041416D01*
X041423Y025153D01*
X041426D01*
X041470Y025146D01*
X041510Y025140D01*
X041526D01*
X041540Y025136D01*
X041550D01*
X041600Y025170D01*
X041643Y025193D01*
X041663Y025203D01*
X041676Y025210D01*
X041686Y025213D01*
X041690D01*
X041716Y025223D01*
X041740Y025230D01*
X041756Y025233D01*
X041773Y025240D01*
X041783D01*
X041790Y025243D01*
X041796D01*
X041803Y025240D01*
X041810Y025233D01*
X041816Y025216D01*
X041820Y025196D01*
Y025193D01*
Y025190D01*
X041823Y025153D01*
Y025116D01*
Y025103D01*
X041820Y025093D01*
Y025086D01*
Y025083D01*
X041836Y025100D01*
X041853Y025113D01*
X041880Y025130D01*
X041903Y025136D01*
X041906Y025140D01*
X041910D01*
X041943Y025146D01*
X041970Y025150D01*
X041986Y025146D01*
X041993D01*
X041983Y025116D01*
X041970Y025093D01*
X041956Y025076D01*
X041953Y025073D01*
Y025070D01*
X041943Y025053D01*
X041936Y025036D01*
X041926Y025000D01*
X041923Y024983D01*
X041920Y024970D01*
Y024960D01*
Y024956D01*
X041910Y024936D01*
X041900Y024920D01*
X041893Y024906D01*
X041890Y024900D01*
X041883Y024890D01*
X041880Y024886D01*
X041876Y024880D01*
X041873Y024870D01*
X041866Y024843D01*
X041863Y024830D01*
Y024816D01*
X041860Y024810D01*
Y024806D01*
X041870Y024763D01*
X041873Y024730D01*
X041876Y024706D01*
Y024693D01*
Y024687D01*
Y024680D01*
X041863D01*
X041846Y024670D01*
X041826Y024660D01*
X041806Y024643D01*
X041783Y024630D01*
X041763Y024617D01*
X041753Y024607D01*
X041746Y024603D01*
X041743Y024600D01*
X041736D01*
Y024597D01*
X041740Y024593D01*
Y024590D01*
X041743Y024587D01*
X041746D01*
X041783Y024557D01*
X041823Y024530D01*
X041860Y024507D01*
X041900Y024487D01*
X041930Y024470D01*
X041956Y024457D01*
X041973Y024450D01*
X041980Y024447D01*
X042083Y024407D01*
X042130Y024390D01*
X042173Y024377D01*
X042210Y024367D01*
X042236Y024357D01*
X042253Y024353D01*
X042260Y024350D01*
X042313Y024337D01*
X042363Y024323D01*
X042406Y024310D01*
X042446Y024303D01*
X042476Y024293D01*
X042503Y024287D01*
X042516Y024283D01*
X042523D01*
X042566Y024273D01*
X042603Y024267D01*
X042633Y024260D01*
X042660Y024253D01*
X042676Y024247D01*
X042693Y024243D01*
X042700Y024240D01*
X042710D01*
X042716Y024247D01*
X042723Y024250D01*
Y024253D01*
X042730Y024267D01*
X042740Y024277D01*
X042743Y024280D01*
X042746Y024283D01*
Y024287D01*
X042750Y024290D01*
X042753Y024293D01*
X042756Y024297D01*
X042760D01*
X042763Y024283D01*
Y024267D01*
X042760Y024250D01*
Y024247D01*
Y024243D01*
X042756Y024220D01*
Y024207D01*
X042760Y024200D01*
Y024197D01*
X042800Y024163D01*
X042843Y024130D01*
X042893Y024093D01*
X042940Y024060D01*
X042983Y024030D01*
X043016Y024007D01*
X043030Y023997D01*
X043040Y023990D01*
X043046Y023983D01*
X043050D01*
X043120Y023933D01*
X043186Y023880D01*
X043243Y023830D01*
X043293Y023787D01*
X043333Y023747D01*
X043363Y023713D01*
X043380Y023693D01*
X043386Y023690D01*
Y023687D01*
X043423Y023613D01*
X043460Y023537D01*
X043496Y023467D01*
X043530Y023403D01*
X043556Y023347D01*
X043570Y023323D01*
X043580Y023303D01*
X043590Y023290D01*
X043593Y023277D01*
X043600Y023270D01*
Y023267D01*
X043620Y023227D01*
X043636Y023187D01*
X043663Y023117D01*
X043680Y023053D01*
X043686Y023000D01*
X043690Y022957D01*
Y022927D01*
X043686Y022907D01*
Y022903D01*
Y022900D01*
X043583Y022893D01*
X043486Y022890D01*
X043396Y022887D01*
X043320Y022883D01*
X043283Y022880D01*
X043226D01*
X043203Y022877D01*
X043160D01*
X043073Y022870D01*
X043000Y022857D01*
X042936Y022840D01*
X042883Y022820D01*
X042843Y022800D01*
X042813Y022783D01*
X042796Y022770D01*
X042790Y022767D01*
X042703Y022830D01*
X042613Y022883D01*
X042526Y022930D01*
X042446Y022970D01*
X042410Y022987D01*
X042376Y023000D01*
X042346Y023010D01*
X042320Y023020D01*
X042300Y023027D01*
X042283Y023033D01*
X042273Y023037D01*
X042270D01*
X042160Y023063D01*
X042053Y023080D01*
X041953Y023090D01*
X041906Y023093D01*
X041866D01*
X041826Y023090D01*
X041790D01*
X041760Y023087D01*
X041733D01*
X041713Y023083D01*
X041696D01*
X041686Y023080D01*
X041683D01*
X041663Y023117D01*
X041640Y023150D01*
X041616Y023183D01*
X041593Y023213D01*
X041570Y023240D01*
X041553Y023260D01*
X041540Y023273D01*
X041536Y023277D01*
X041500Y023317D01*
X041456Y023353D01*
X041416Y023390D01*
X041376Y023420D01*
X041343Y023447D01*
X041316Y023470D01*
X041296Y023483D01*
X041293Y023487D01*
X041290D01*
X041233Y023527D01*
X041173Y023563D01*
X041113Y023600D01*
X041060Y023633D01*
X041013Y023660D01*
X040977Y023680D01*
X040963Y023687D01*
X040953Y023693D01*
X040947Y023697D01*
X040943D01*
X040867Y023737D01*
X040793Y023777D01*
X040717Y023813D01*
X040650Y023847D01*
X040590Y023873D01*
X040567Y023883D01*
X040543Y023893D01*
X040527Y023903D01*
X040513Y023910D01*
X040507Y023913D01*
X040503D01*
X040493Y023910D01*
X040483Y023900D01*
X040473Y023890D01*
X040470Y023887D01*
X040453Y023870D01*
X040440Y023860D01*
X040430Y023853D01*
X040413D01*
X040403Y023857D01*
X040397Y023860D01*
X040393Y023863D01*
X040383Y023873D01*
X040377Y023877D01*
X040373Y023880D01*
X040370D01*
Y023883D01*
Y023887D01*
Y023890D01*
X040377Y023910D01*
X040380Y023917D01*
Y023920D01*
X040383D01*
Y023923D01*
X040387Y023933D01*
Y023937D01*
X040390Y023943D01*
Y023947D01*
X040393Y023950D01*
Y023953D01*
Y023960D01*
X040390Y023963D01*
X040370Y023973D01*
X040347Y023980D01*
X040300Y023993D01*
X040277Y023997D01*
X040260D01*
X040247Y024000D01*
X040243D01*
X040170Y024003D01*
X040137Y024000D01*
X040110D01*
X040083Y023997D01*
X040067Y023993D01*
X040053Y023990D01*
X040050D01*
X040070Y024037D01*
X040087Y024080D01*
X040100Y024113D01*
X040107Y024140D01*
X040113Y024163D01*
X040117Y024177D01*
X040120Y024187D01*
Y024190D01*
X040127Y024240D01*
X040123Y024287D01*
X040120Y024307D01*
Y024323D01*
X040117Y024333D01*
Y024337D01*
X040097Y024320D01*
X040077Y024307D01*
X040063Y024297D01*
X040057Y024293D01*
X040037Y024283D01*
X040017D01*
X040007Y024297D01*
X040000Y024310D01*
X039997Y024317D01*
Y024320D01*
Y024343D01*
Y024353D01*
Y024357D01*
Y024360D01*
Y024367D01*
X040000D01*
X040007Y024377D01*
X040017Y024387D01*
X040027Y024390D01*
X040030Y024393D01*
X040047Y024403D01*
X040057Y024413D01*
X040060Y024417D01*
X040063Y024420D01*
Y024423D01*
X040067D01*
Y024427D01*
Y024430D01*
Y024433D01*
X040047Y024523D01*
X040037Y024570D01*
X040027Y024610D01*
X040020Y024643D01*
X040013Y024670D01*
X040010Y024687D01*
X040007Y024693D01*
X039993Y024746D01*
X039977Y024796D01*
X039960Y024843D01*
X039947Y024886D01*
X039933Y024920D01*
X039920Y024946D01*
X039913Y024963D01*
X039910Y024970D01*
X039887Y025020D01*
X039860Y025063D01*
X039833Y025103D01*
X039810Y025140D01*
X039787Y025166D01*
X039770Y025190D01*
X039757Y025203D01*
X039753Y025206D01*
X039717Y025243D01*
X039677Y025273D01*
X039637Y025300D01*
X039597Y025320D01*
X039563Y025333D01*
X039537Y025346D01*
X039517Y025350D01*
X039513Y025353D01*
X039510D01*
X039520Y025373D01*
X039527Y025390D01*
X039530Y025403D01*
Y025406D01*
X039537Y025426D01*
X039543Y025443D01*
X039547Y025456D01*
Y025460D01*
X039563Y025526D01*
X039573Y025590D01*
X039580Y025646D01*
X039583Y025700D01*
X039587Y025743D01*
X039583Y025776D01*
Y025786D01*
Y025796D01*
Y025800D01*
Y025803D01*
X039577Y025866D01*
X039567Y025926D01*
X039553Y025983D01*
X039540Y026033D01*
X039527Y026076D01*
X039517Y026110D01*
X039513Y026123D01*
X039510Y026133D01*
X039507Y026136D01*
Y026140D01*
X039533Y026153D01*
X039557Y026170D01*
X039603Y026200D01*
X039620Y026216D01*
X039633Y026230D01*
X039643Y026236D01*
X039647Y026240D01*
X039673Y026266D01*
X039700Y026296D01*
X039723Y026326D01*
X039743Y026356D01*
X039757Y026380D01*
X039770Y026403D01*
X039777Y026416D01*
X039780Y026420D01*
X039787Y026436D01*
X039790Y026440D01*
X039797Y026456D01*
X039800Y026460D01*
Y026463D01*
Y026466D01*
X039803Y026470D01*
X039810Y026486D01*
X039817Y026500D01*
X039820Y026510D01*
Y026513D01*
X039827Y026530D01*
X039833Y026546D01*
X039840Y026560D01*
Y026563D01*
X039843Y026583D01*
X039847Y026586D01*
Y026590D01*
X039850Y026610D01*
X039853Y026616D01*
Y026620D01*
X039860Y026640D01*
X039863Y026660D01*
X039867Y026673D01*
Y026676D01*
X039870Y026696D01*
Y026716D01*
X039873Y026730D01*
Y026733D01*
X039963Y026726D01*
D02*
G37*
G36*
X038645Y035360D02*
Y035350D01*
X038705Y035055D01*
Y035050D01*
X038710Y035045D01*
X038720Y035040D01*
X038915Y034955D01*
X038935D01*
X039185Y035135D01*
X039195D01*
X039205Y035125D01*
X039420Y034920D01*
Y034915D01*
Y034910D01*
Y034905D01*
Y034900D01*
X039250Y034650D01*
Y034640D01*
Y034635D01*
Y034630D01*
X039340Y034425D01*
Y034420D01*
X039345Y034415D01*
X039355Y034410D01*
X039640Y034360D01*
X039650D01*
X039655Y034355D01*
Y034345D01*
Y034050D01*
Y034045D01*
X039650Y034040D01*
X039640Y034035D01*
X039365Y033975D01*
X039360D01*
X039355Y033970D01*
X039350Y033965D01*
X039255Y033745D01*
Y033740D01*
Y033730D01*
Y033725D01*
X039420Y033490D01*
Y033480D01*
Y033475D01*
X039205Y033265D01*
X039200Y033260D01*
X039195D01*
X039185Y033265D01*
X038960Y033420D01*
X038935D01*
X038840Y033360D01*
X038835D01*
X038830Y033365D01*
X038825Y033370D01*
X038610Y033870D01*
Y033875D01*
Y033880D01*
X038620Y033895D01*
X038645Y033905D01*
X038650Y033910D01*
X038655Y033915D01*
X038660Y033920D01*
X038665Y033925D01*
X038685Y033935D01*
X038710Y033960D01*
X038735Y033990D01*
X038765Y034025D01*
X038785Y034070D01*
X038805Y034125D01*
X038810Y034190D01*
Y034195D01*
Y034215D01*
X038805Y034240D01*
X038800Y034270D01*
X038785Y034310D01*
X038770Y034350D01*
X038745Y034390D01*
X038715Y034425D01*
X038710Y034430D01*
X038700Y034440D01*
X038680Y034455D01*
X038655Y034475D01*
X038620Y034495D01*
X038580Y034510D01*
X038535Y034520D01*
X038485Y034525D01*
X038465D01*
X038435Y034520D01*
X038405Y034515D01*
X038370Y034500D01*
X038330Y034485D01*
X038290Y034460D01*
X038255Y034425D01*
X038250Y034420D01*
X038240Y034410D01*
X038225Y034390D01*
X038210Y034360D01*
X038190Y034325D01*
X038175Y034285D01*
X038165Y034240D01*
X038160Y034190D01*
Y034180D01*
Y034160D01*
X038170Y034130D01*
X038180Y034090D01*
X038195Y034045D01*
X038220Y034000D01*
X038255Y033960D01*
X038305Y033920D01*
X038310Y033915D01*
X038315Y033910D01*
X038320D01*
Y033905D01*
X038350Y033895D01*
X038355Y033890D01*
Y033870D01*
X038150Y033370D01*
X038145Y033365D01*
X038130Y033360D01*
X038030Y033420D01*
X038010D01*
X037785Y033265D01*
X037775Y033260D01*
X037770D01*
X037760Y033265D01*
X037550Y033475D01*
Y033480D01*
Y033485D01*
Y033490D01*
X037710Y033725D01*
Y033730D01*
Y033735D01*
Y033745D01*
X037620Y033965D01*
Y033970D01*
X037615Y033975D01*
X037605D01*
X037330Y034035D01*
X037325D01*
X037320Y034040D01*
X037315Y034050D01*
Y034345D01*
Y034350D01*
Y034355D01*
X037320Y034360D01*
X037330D01*
X037615Y034410D01*
X037620D01*
X037625Y034415D01*
X037635Y034425D01*
X037720Y034630D01*
Y034635D01*
Y034640D01*
Y034645D01*
Y034650D01*
X037550Y034900D01*
Y034905D01*
Y034910D01*
Y034915D01*
Y034920D01*
X037760Y035125D01*
X037765Y035130D01*
X037785Y035135D01*
X038030Y034955D01*
X038050D01*
X038250Y035040D01*
X038260D01*
X038265Y035045D01*
Y035055D01*
X038320Y035350D01*
Y035355D01*
Y035360D01*
X038325Y035365D01*
X038640D01*
X038645Y035360D01*
D02*
G37*
G36*
X039445Y033005D02*
X039470Y032995D01*
X039420Y032935D01*
X039415Y032940D01*
X039410Y032950D01*
X039395Y032955D01*
X039385Y032960D01*
X039375D01*
X039355Y032950D01*
X039340Y032940D01*
X039330Y032930D01*
X039325Y032910D01*
X039320Y032885D01*
Y032705D01*
X039255D01*
Y033015D01*
X039320D01*
Y032980D01*
X039325Y032985D01*
X039340Y033000D01*
X039365Y033010D01*
X039405Y033015D01*
X039425D01*
X039445Y033005D01*
D02*
G37*
G36*
X039640Y033010D02*
X039675Y032995D01*
X039715Y032965D01*
X039670Y032920D01*
X039665Y032925D01*
X039655Y032940D01*
X039630Y032955D01*
X039605Y032960D01*
X039595D01*
X039565Y032950D01*
X039550Y032935D01*
X039540Y032920D01*
X039530Y032895D01*
X039525Y032860D01*
Y032855D01*
Y032845D01*
X039535Y032810D01*
X039545Y032790D01*
X039560Y032775D01*
X039580Y032765D01*
X039605Y032760D01*
X039610D01*
X039625Y032765D01*
X039645Y032775D01*
X039670Y032795D01*
X039715Y032750D01*
X039705Y032740D01*
X039685Y032725D01*
X039650Y032705D01*
X039630Y032700D01*
X039605Y032695D01*
X039600D01*
X039585Y032700D01*
X039560Y032705D01*
X039535Y032715D01*
X039505Y032735D01*
X039485Y032765D01*
X039465Y032805D01*
X039460Y032860D01*
Y032865D01*
Y032885D01*
X039470Y032910D01*
X039480Y032940D01*
X039495Y032965D01*
X039520Y032990D01*
X039555Y033010D01*
X039605Y033015D01*
X039615D01*
X039640Y033010D01*
D02*
G37*
G36*
X039185Y032705D02*
X039120D01*
Y032730D01*
X039115Y032725D01*
X039100Y032715D01*
X039075Y032700D01*
X039045Y032695D01*
X039030D01*
X039010Y032700D01*
X038990Y032710D01*
X038970Y032720D01*
X038950Y032740D01*
X038940Y032770D01*
X038935Y032805D01*
Y033015D01*
X039000D01*
Y032830D01*
Y032825D01*
Y032820D01*
X039010Y032795D01*
X039030Y032770D01*
X039045Y032765D01*
X039065Y032760D01*
X039075D01*
X039095Y032770D01*
X039110Y032790D01*
X039120Y032805D01*
Y032830D01*
Y033015D01*
X039185D01*
Y032705D01*
D02*
G37*
%LPC*%
G36*
X037775Y032335D02*
X037690D01*
X037675Y032330D01*
X037660Y032320D01*
X037650Y032300D01*
Y032295D01*
X037655Y032280D01*
X037675Y032260D01*
X037685Y032255D01*
X037715D01*
X037740Y032265D01*
X037765Y032280D01*
X037770Y032295D01*
X037775Y032315D01*
Y032335D01*
D02*
G37*
G36*
X039045D02*
X038960D01*
X038945Y032330D01*
X038925Y032320D01*
X038920Y032310D01*
X038915Y032300D01*
Y032295D01*
X038920Y032280D01*
X038940Y032260D01*
X038950Y032255D01*
X038980D01*
X039010Y032265D01*
X039035Y032280D01*
X039040Y032295D01*
X039045Y032315D01*
Y032335D01*
D02*
G37*
G36*
X037415Y032960D02*
X037405D01*
X037385Y032950D01*
X037370Y032935D01*
X037360Y032920D01*
X037355Y032895D01*
X037350Y032860D01*
Y032855D01*
Y032845D01*
X037360Y032810D01*
X037380Y032775D01*
X037395Y032765D01*
X037415Y032760D01*
X037425D01*
X037450Y032775D01*
X037460Y032785D01*
X037470Y032800D01*
X037475Y032825D01*
X037480Y032860D01*
Y032865D01*
Y032875D01*
X037470Y032910D01*
X037455Y032945D01*
X037435Y032955D01*
X037415Y032960D01*
D02*
G37*
G36*
X038755D02*
X038750D01*
X038735Y032955D01*
X038715Y032950D01*
X038705Y032930D01*
Y032925D01*
X038700Y032915D01*
X038695Y032895D01*
X038690Y032860D01*
Y032850D01*
Y032830D01*
X038695Y032805D01*
X038705Y032780D01*
Y032775D01*
X038715Y032770D01*
X038730Y032765D01*
X038755Y032760D01*
X038760D01*
X038775Y032765D01*
X038790Y032770D01*
X038805Y032780D01*
Y032785D01*
X038810Y032800D01*
X038815Y032825D01*
Y032860D01*
Y032865D01*
Y032870D01*
Y032890D01*
X038810Y032915D01*
X038805Y032930D01*
X038800Y032935D01*
X038790Y032945D01*
X038775Y032955D01*
X038755Y032960D01*
D02*
G37*
G36*
X041736Y024900D02*
X041710D01*
X041706Y024896D01*
X041696Y024890D01*
X041693Y024886D01*
X041690Y024880D01*
Y024870D01*
Y024866D01*
Y024863D01*
X041696Y024850D01*
X041703Y024846D01*
X041713Y024840D01*
X041733D01*
X041746Y024846D01*
X041756Y024850D01*
X041760Y024853D01*
X041763Y024856D01*
X041760Y024863D01*
X041756Y024870D01*
Y024873D01*
X041750Y024886D01*
X041743Y024893D01*
X041736Y024900D01*
D02*
G37*
G36*
X037710Y032960D02*
X037700D01*
X037680Y032950D01*
X037670Y032940D01*
X037660Y032930D01*
X037655Y032910D01*
X037650Y032885D01*
X037785D01*
Y032890D01*
X037780Y032895D01*
X037770Y032925D01*
X037745Y032950D01*
X037730Y032955D01*
X037710Y032960D01*
D02*
G37*
G36*
X039860D02*
X039850D01*
X039830Y032950D01*
X039815Y032940D01*
X039805Y032930D01*
X039800Y032910D01*
X039795Y032885D01*
X039930D01*
Y032890D01*
Y032895D01*
X039920Y032925D01*
X039895Y032950D01*
X039880Y032955D01*
X039860Y032960D01*
D02*
G37*
G36*
X039520Y032460D02*
X039510D01*
X039490Y032450D01*
X039465Y032430D01*
X039460Y032415D01*
X039455Y032390D01*
X039590D01*
Y032395D01*
X039585Y032400D01*
X039575Y032425D01*
X039555Y032450D01*
X039540Y032455D01*
X039520Y032460D01*
D02*
G37*
G36*
X038250D02*
X038240D01*
X038220Y032450D01*
X038205Y032435D01*
X038195Y032420D01*
X038190Y032395D01*
X038185Y032365D01*
Y032360D01*
Y032350D01*
X038195Y032315D01*
X038215Y032280D01*
X038230Y032270D01*
X038250Y032265D01*
X038260D01*
X038280Y032280D01*
X038290Y032290D01*
X038295Y032305D01*
X038305Y032330D01*
Y032365D01*
Y032370D01*
Y032380D01*
X038300Y032415D01*
X038280Y032445D01*
X038270Y032455D01*
X038250Y032460D01*
D02*
G37*
G36*
X037110Y032960D02*
X037105D01*
X037090Y032955D01*
X037070Y032950D01*
X037060Y032930D01*
X037055Y032925D01*
X037050Y032915D01*
X037045Y032890D01*
X037040Y032860D01*
Y032855D01*
X037045Y032835D01*
X037050Y032805D01*
X037060Y032780D01*
Y032775D01*
X037070Y032770D01*
X037085Y032765D01*
X037110Y032760D01*
X037115D01*
X037130Y032765D01*
X037150Y032770D01*
X037160Y032780D01*
X037165Y032785D01*
X037170Y032800D01*
X037175Y032825D01*
Y032860D01*
Y032865D01*
Y032870D01*
Y032890D01*
X037170Y032915D01*
X037160Y032930D01*
X037155Y032935D01*
X037150Y032945D01*
X037135Y032955D01*
X037110Y032960D01*
D02*
G37*
%LPD*%
D10*
X047300Y022891D02*
G03*
X047300Y022891I-000141J000000D01*
G01*
Y026891D02*
G03*
X047300Y026891I-000141J000000D01*
G01*
X046469Y022210D02*
X048149D01*
X046469D02*
Y023572D01*
X048149D01*
Y022210D02*
Y023572D01*
X046469Y026210D02*
X048149D01*
X046469D02*
Y027572D01*
X048149D01*
Y026210D02*
Y027572D01*
X048257Y032825D02*
X048735D01*
X048257Y035975D02*
X048735D01*
Y032825D02*
Y035975D01*
X034169Y037943D02*
X048232D01*
X034169Y030857D02*
Y037943D01*
Y030857D02*
X048232D01*
Y037943D01*
X025450Y040900D02*
X028550D01*
Y038500D02*
Y040900D01*
X025450Y038500D02*
X028550D01*
X025450D02*
Y040900D01*
X029450D02*
X032550D01*
Y038500D02*
Y040900D01*
X029450Y038500D02*
X032550D01*
X029450D02*
Y040900D01*
X010700Y035900D02*
X010100D01*
X010300Y036100D01*
X010100Y036300D01*
X010700D01*
Y036500D02*
Y036700D01*
Y036600D01*
X010300D01*
Y036500D01*
Y037400D02*
Y037100D01*
X010400Y037000D01*
X010600D01*
X010700Y037100D01*
Y037400D01*
X037500Y038700D02*
X038100D01*
Y039100D01*
X037500Y039700D02*
Y039300D01*
X038100D01*
Y039700D01*
X037800Y039300D02*
Y039500D01*
X037500Y039900D02*
X038100D01*
Y040200D01*
X038000Y040299D01*
X037600D01*
X037500Y040200D01*
Y039900D01*
X038100Y040499D02*
Y040699D01*
Y040599D01*
X037500D01*
X037600Y040499D01*
X042000Y038600D02*
X042600D01*
Y039000D01*
X042000Y039600D02*
Y039200D01*
X042600D01*
Y039600D01*
X042300Y039200D02*
Y039400D01*
X042000Y039800D02*
X042600D01*
Y040100D01*
X042500Y040199D01*
X042100D01*
X042000Y040100D01*
Y039800D01*
X042600Y040799D02*
Y040399D01*
X042200Y040799D01*
X042100D01*
X042000Y040699D01*
Y040499D01*
X042100Y040399D01*
X046500Y038600D02*
X047100D01*
Y039000D01*
X046500Y039600D02*
Y039200D01*
X047100D01*
Y039600D01*
X046800Y039200D02*
Y039400D01*
X046500Y039800D02*
X047100D01*
Y040100D01*
X047000Y040199D01*
X046600D01*
X046500Y040100D01*
Y039800D01*
X046600Y040399D02*
X046500Y040499D01*
Y040699D01*
X046600Y040799D01*
X046700D01*
X046800Y040699D01*
Y040599D01*
Y040699D01*
X046900Y040799D01*
X047000D01*
X047100Y040699D01*
Y040499D01*
X047000Y040399D01*
X030900Y038100D02*
X030800Y038200D01*
X030600D01*
X030500Y038100D01*
Y038000D01*
X030600Y037900D01*
X030800D01*
X030900Y037800D01*
Y037700D01*
X030800Y037600D01*
X030600D01*
X030500Y037700D01*
X031100Y037600D02*
X031300D01*
X031200D01*
Y038200D01*
X031100Y038100D01*
X026700D02*
X026600Y038200D01*
X026400D01*
X026300Y038100D01*
Y038000D01*
X026400Y037900D01*
X026600D01*
X026700Y037800D01*
Y037700D01*
X026600Y037600D01*
X026400D01*
X026300Y037700D01*
X027300Y037600D02*
X026900D01*
X027300Y038000D01*
Y038100D01*
X027200Y038200D01*
X027000D01*
X026900Y038100D01*
X035900Y023200D02*
Y023800D01*
X036200D01*
X036300Y023700D01*
Y023500D01*
X036200Y023400D01*
X035900D01*
X036500Y023800D02*
Y023200D01*
X036700Y023400D01*
X036900Y023200D01*
Y023800D01*
X037100Y023200D02*
Y023800D01*
X037400D01*
X037499Y023700D01*
Y023500D01*
X037400Y023400D01*
X037100D01*
X037300D02*
X037499Y023200D01*
X033700Y022500D02*
X034100D01*
X034900D02*
X035299D01*
X035100Y022700D02*
Y022300D01*
X035363Y028653D02*
X035763D01*
X035563D01*
Y028053D01*
X036263D02*
X036063D01*
X035963Y028153D01*
Y028353D01*
X036063Y028453D01*
X036263D01*
X036363Y028353D01*
Y028253D01*
X035963D01*
X036863Y028053D02*
X036663D01*
X036563Y028153D01*
Y028353D01*
X036663Y028453D01*
X036863D01*
X036963Y028353D01*
Y028253D01*
X036563D01*
X037163Y028053D02*
Y028453D01*
X037463D01*
X037563Y028353D01*
Y028053D01*
X037763D02*
X038062D01*
X038162Y028153D01*
X038062Y028253D01*
X037863D01*
X037763Y028353D01*
X037863Y028453D01*
X038162D01*
X038362D02*
Y028153D01*
X038462Y028053D01*
X038762D01*
Y027953D01*
X038662Y027853D01*
X038562D01*
X038762Y028053D02*
Y028453D01*
X038962Y028653D02*
Y028053D01*
X039262D01*
X039362Y028153D01*
Y028253D01*
X039262Y028353D01*
X038962D01*
X039262D01*
X039362Y028453D01*
Y028553D01*
X039262Y028653D01*
X038962D01*
X039662Y028453D02*
X039862D01*
X039962Y028353D01*
Y028053D01*
X039662D01*
X039562Y028153D01*
X039662Y028253D01*
X039962D01*
X040262Y028553D02*
Y028453D01*
X040162D01*
X040362D01*
X040262D01*
Y028153D01*
X040362Y028053D01*
X041261Y028453D02*
X041461Y028053D01*
X041661Y028453D01*
X041861Y028553D02*
X041961Y028653D01*
X042161D01*
X042261Y028553D01*
Y028153D01*
X042161Y028053D01*
X041961D01*
X041861Y028153D01*
Y028553D01*
X042461Y028053D02*
Y028153D01*
X042561D01*
Y028053D01*
X042461D01*
X042961D02*
X043161D01*
X043061D01*
Y028653D01*
X042961Y028553D01*
D29*
X033430Y024070D02*
X033930D01*
X033430Y022930D02*
Y024070D01*
Y022930D02*
X033930D01*
X035070D02*
X035570D01*
Y024070D01*
X035070D02*
X035570D01*
D52*
X026284Y023606D02*
G03*
X026284Y023606I-000984J000000D01*
G01*
X046033Y039042D02*
G03*
X044219Y040426I-000933J000658D01*
G01*
X044223Y038969D02*
G03*
X046072Y039102I000877J000731D01*
G01*
X041533Y039042D02*
G03*
X039719Y040426I-000933J000658D01*
G01*
X039723Y038969D02*
G03*
X041572Y039102I000877J000731D01*
G01*
X037033Y039042D02*
G03*
X035219Y040426I-000933J000658D01*
G01*
X035223Y038969D02*
G03*
X037072Y039102I000877J000731D01*
G01*
X025891Y023055D02*
Y023370D01*
X025733Y024000D02*
X026048D01*
X025891Y023843D02*
Y024157D01*
X016165Y023462D02*
Y023738D01*
X016835Y023462D02*
Y023738D01*
X029109Y027599D02*
X030291D01*
X029109Y025001D02*
X030291D01*
X017246Y025768D02*
Y029232D01*
X017954Y025768D02*
Y029232D01*
X017246D02*
X017954D01*
X017246Y025768D02*
X017954D01*
X017596Y035068D02*
Y038532D01*
X018304Y035068D02*
Y038532D01*
X017596D02*
X018304D01*
X017596Y035068D02*
X018304D01*
X027615Y029262D02*
Y029538D01*
X026985Y029262D02*
Y029538D01*
X027305Y031162D02*
Y031438D01*
X027895Y031162D02*
Y031438D01*
X043315Y039503D02*
Y039897D01*
X043885Y039503D02*
Y039897D01*
X038815Y039503D02*
Y039897D01*
X039385Y039503D02*
Y039897D01*
X034315Y039503D02*
Y039897D01*
X034885Y039503D02*
Y039897D01*
X044200Y039000D02*
Y040400D01*
X039700Y039000D02*
Y040400D01*
X035200Y039000D02*
Y040400D01*
X029562Y027888D02*
X029838D01*
X029562Y028912D02*
X029838D01*
X029062Y023765D02*
X029338D01*
X029062Y024435D02*
X029338D01*
X032095Y025762D02*
Y026038D01*
X031505Y025762D02*
Y026038D01*
X027895Y025762D02*
Y026038D01*
X027305Y025762D02*
Y026038D01*
X027615Y033503D02*
Y033897D01*
X028185Y033503D02*
Y033897D01*
X018503Y040215D02*
X018897D01*
X018503Y040785D02*
X018897D01*
X015262Y039135D02*
X015538D01*
X015262Y038465D02*
X015538D01*
X011465Y028262D02*
Y028538D01*
X012135Y028262D02*
Y028538D01*
X014462Y036735D02*
X014738D01*
X014462Y036065D02*
X014738D01*
X014462Y028035D02*
X014738D01*
X014462Y027365D02*
X014738D01*
X012462Y039135D02*
X012738D01*
X012462Y038465D02*
X012738D01*
X012335Y031862D02*
Y032138D01*
X011665Y031862D02*
Y032138D01*
X015803Y040785D02*
X016197D01*
X015803Y040215D02*
X016197D01*
X020762Y039565D02*
X021038D01*
X020762Y040235D02*
X021038D01*
X022465Y038962D02*
Y039238D01*
X023135Y038962D02*
Y039238D01*
X014465Y033662D02*
Y033938D01*
X015135Y033662D02*
Y033938D01*
X021115Y036103D02*
Y036497D01*
X021685Y036103D02*
Y036497D01*
X020762Y034165D02*
X021038D01*
X020762Y034835D02*
X021038D01*
X018665Y033362D02*
Y033638D01*
X019335Y033362D02*
Y033638D01*
X016903Y031915D02*
X017297D01*
X016903Y032485D02*
X017297D01*
X020703Y033085D02*
X021097D01*
X020703Y032515D02*
X021097D01*
X012915Y033903D02*
Y034297D01*
X013485Y033903D02*
Y034297D01*
X013203Y040215D02*
X013597D01*
X013203Y040785D02*
X013597D01*
X013503Y031315D02*
X013897D01*
X013503Y031885D02*
X013897D01*
X012203Y037385D02*
X012597D01*
X012203Y036815D02*
X012597D01*
X020603Y038385D02*
X020997D01*
X020603Y037815D02*
X020997D01*
X016803Y033885D02*
X017197D01*
X016803Y033315D02*
X017197D01*
X022515Y036503D02*
Y036897D01*
X023085Y036503D02*
Y036897D01*
X011715Y035103D02*
Y035497D01*
X012285Y035103D02*
Y035497D01*
X021985Y028403D02*
Y028797D01*
X021415Y028403D02*
Y028797D01*
X023735Y028162D02*
Y028438D01*
X023065Y028162D02*
Y028438D01*
X020015Y028303D02*
Y028697D01*
X020585Y028303D02*
Y028697D01*
X013703Y030085D02*
X014097D01*
X013703Y029515D02*
X014097D01*
X022462Y030765D02*
X022738D01*
X022462Y031435D02*
X022738D01*
X019362Y030265D02*
X019638D01*
X019362Y030935D02*
X019638D01*
X016862Y030935D02*
X017138D01*
X016862Y030265D02*
X017138D01*
X012815Y023903D02*
Y024297D01*
X013385Y023903D02*
Y024297D01*
X012085Y025803D02*
Y026197D01*
X011515Y025803D02*
Y026197D01*
X014651Y023576D02*
X014749D01*
X014651Y023024D02*
X014749D01*
X014751Y024124D02*
X014849D01*
X014751Y024676D02*
X014849D01*
X014203Y025715D02*
X014597D01*
X014203Y026285D02*
X014597D01*
X017715Y023403D02*
Y023797D01*
X018285Y023403D02*
Y023797D01*
X019885Y023403D02*
Y023797D01*
X019315Y023403D02*
Y023797D01*
X022615Y024003D02*
Y024397D01*
X023185Y024003D02*
Y024397D01*
X020603Y026285D02*
X020997D01*
X020603Y025715D02*
X020997D01*
X022803Y026285D02*
X023197D01*
X022803Y025715D02*
X023197D01*
X030462Y030365D02*
X030738D01*
X030462Y031035D02*
X030738D01*
X028290Y030202D02*
Y030398D01*
X029510Y030202D02*
Y030398D01*
X028290Y030202D02*
X029510D01*
X028290Y030398D02*
X029510D01*
X034085Y026303D02*
Y026697D01*
X033515Y026303D02*
Y026697D01*
X035185Y026303D02*
Y026697D01*
X034615Y026303D02*
Y026697D01*
X020865Y023362D02*
Y023638D01*
X021535Y023362D02*
Y023638D01*
D53*
X028607Y027737D02*
G03*
X028607Y027737I-000049J000000D01*
G01*
X016704Y029335D02*
G03*
X016704Y029335I-000049J000000D01*
G01*
X017054Y038635D02*
G03*
X017054Y038635I-000049J000000D01*
G01*
X028241Y029828D02*
G03*
X028241Y029828I-000049J000000D01*
G01*
D54*
X014100Y023585D02*
G03*
X014100Y023585I-000020J000000D01*
G01*
X015440Y024115D02*
G03*
X015440Y024115I-000020J000000D01*
G01*
D55*
X010000Y037650D02*
Y040750D01*
Y037650D02*
X011000D01*
Y040750D01*
X010000D02*
X011000D01*
D56*
X025000Y025275D02*
X024925Y025350D01*
X024775D01*
X024700Y025275D01*
Y024975D01*
X024775Y024900D01*
X024925D01*
X025000Y024975D01*
X025450Y024900D02*
X025150D01*
X025450Y025200D01*
Y025275D01*
X025375Y025350D01*
X025225D01*
X025150Y025275D01*
X025900Y025350D02*
X025600D01*
Y025125D01*
X025750Y025200D01*
X025825D01*
X025900Y025125D01*
Y024975D01*
X025825Y024900D01*
X025675D01*
X025600Y024975D01*
X028500Y031740D02*
Y031373D01*
X028573Y031300D01*
X028720D01*
X028793Y031373D01*
Y031740D01*
X029233D02*
X028940D01*
Y031520D01*
X029086Y031593D01*
X029160D01*
X029233Y031520D01*
Y031373D01*
X029160Y031300D01*
X029013D01*
X028940Y031373D01*
X030193Y031867D02*
X030120Y031940D01*
X029973D01*
X029900Y031867D01*
Y031573D01*
X029973Y031500D01*
X030120D01*
X030193Y031573D01*
X030633Y031500D02*
X030340D01*
X030633Y031793D01*
Y031867D01*
X030560Y031940D01*
X030413D01*
X030340Y031867D01*
X031000Y031500D02*
Y031940D01*
X030780Y031720D01*
X031073D01*
X027393Y032667D02*
X027320Y032740D01*
X027173D01*
X027100Y032667D01*
Y032373D01*
X027173Y032300D01*
X027320D01*
X027393Y032373D01*
X027833Y032300D02*
X027540D01*
X027833Y032593D01*
Y032667D01*
X027760Y032740D01*
X027613D01*
X027540Y032667D01*
X027980D02*
X028053Y032740D01*
X028200D01*
X028273Y032667D01*
Y032593D01*
X028200Y032520D01*
X028126D01*
X028200D01*
X028273Y032447D01*
Y032373D01*
X028200Y032300D01*
X028053D01*
X027980Y032373D01*
X026233Y029092D02*
X026160Y029019D01*
Y028872D01*
X026233Y028799D01*
X026527D01*
X026600Y028872D01*
Y029019D01*
X026527Y029092D01*
X026600Y029532D02*
Y029239D01*
X026307Y029532D01*
X026233D01*
X026160Y029459D01*
Y029312D01*
X026233Y029239D01*
X026600Y029972D02*
Y029679D01*
X026307Y029972D01*
X026233D01*
X026160Y029898D01*
Y029752D01*
X026233Y029679D01*
X026553Y025603D02*
X026480Y025530D01*
Y025383D01*
X026553Y025310D01*
X026847D01*
X026920Y025383D01*
Y025530D01*
X026847Y025603D01*
X026920Y026043D02*
Y025750D01*
X026627Y026043D01*
X026553D01*
X026480Y025970D01*
Y025823D01*
X026553Y025750D01*
Y026190D02*
X026480Y026263D01*
Y026410D01*
X026553Y026483D01*
X026847D01*
X026920Y026410D01*
Y026263D01*
X026847Y026190D01*
X026553D01*
X032737Y026127D02*
X032810Y026200D01*
Y026347D01*
X032737Y026420D01*
X032443D01*
X032370Y026347D01*
Y026200D01*
X032443Y026127D01*
X032370Y025687D02*
Y025980D01*
X032663Y025687D01*
X032737D01*
X032810Y025760D01*
Y025907D01*
X032737Y025980D01*
X032370Y025540D02*
Y025394D01*
Y025467D01*
X032810D01*
X032737Y025540D01*
X030533Y023943D02*
X030460Y023870D01*
Y023723D01*
X030533Y023650D01*
X030827D01*
X030900Y023723D01*
Y023870D01*
X030827Y023943D01*
X030900Y024090D02*
Y024236D01*
Y024163D01*
X030460D01*
X030533Y024090D01*
Y024456D02*
X030460Y024530D01*
Y024676D01*
X030533Y024750D01*
X030607D01*
X030680Y024676D01*
X030753Y024750D01*
X030827D01*
X030900Y024676D01*
Y024530D01*
X030827Y024456D01*
X030753D01*
X030680Y024530D01*
X030607Y024456D01*
X030533D01*
X030680Y024530D02*
Y024676D01*
X031063Y028547D02*
X030990Y028620D01*
X030843D01*
X030770Y028547D01*
Y028253D01*
X030843Y028180D01*
X030990D01*
X031063Y028253D01*
X031210Y028180D02*
X031356D01*
X031283D01*
Y028620D01*
X031210Y028547D01*
X031576Y028253D02*
X031650Y028180D01*
X031796D01*
X031870Y028253D01*
Y028547D01*
X031796Y028620D01*
X031650D01*
X031576Y028547D01*
Y028473D01*
X031650Y028400D01*
X031870D01*
X027540Y034880D02*
Y035320D01*
X027760D01*
X027833Y035247D01*
Y035100D01*
X027760Y035027D01*
X027540D01*
X027687D02*
X027833Y034880D01*
X028273D02*
X027980D01*
X028273Y035173D01*
Y035247D01*
X028200Y035320D01*
X028053D01*
X027980Y035247D01*
X028420D02*
X028493Y035320D01*
X028640D01*
X028713Y035247D01*
Y035173D01*
X028640Y035100D01*
X028713Y035027D01*
Y034953D01*
X028640Y034880D01*
X028493D01*
X028420Y034953D01*
Y035027D01*
X028493Y035100D01*
X028420Y035173D01*
Y035247D01*
X028493Y035100D02*
X028640D01*
X022500Y040675D02*
X022425Y040750D01*
X022275D01*
X022200Y040675D01*
Y040375D01*
X022275Y040300D01*
X022425D01*
X022500Y040375D01*
X022950Y040300D02*
X022650D01*
X022950Y040600D01*
Y040675D01*
X022875Y040750D01*
X022725D01*
X022650Y040675D01*
X018025Y034300D02*
X017950Y034225D01*
Y034075D01*
X018025Y034000D01*
X018325D01*
X018400Y034075D01*
Y034225D01*
X018325Y034300D01*
X018025Y034450D02*
X017950Y034525D01*
Y034675D01*
X018025Y034750D01*
X018100D01*
X018175Y034675D01*
Y034600D01*
Y034675D01*
X018250Y034750D01*
X018325D01*
X018400Y034675D01*
Y034525D01*
X018325Y034450D01*
X011800Y033745D02*
X011725Y033820D01*
X011575D01*
X011500Y033745D01*
Y033445D01*
X011575Y033370D01*
X011725D01*
X011800Y033445D01*
X012175Y033370D02*
Y033820D01*
X011950Y033595D01*
X012250D01*
X013200Y039775D02*
X013125Y039850D01*
X012975D01*
X012900Y039775D01*
Y039475D01*
X012975Y039400D01*
X013125D01*
X013200Y039475D01*
X013650Y039850D02*
X013350D01*
Y039625D01*
X013500Y039700D01*
X013575D01*
X013650Y039625D01*
Y039475D01*
X013575Y039400D01*
X013425D01*
X013350Y039475D01*
X019300Y039775D02*
X019225Y039850D01*
X019075D01*
X019000Y039775D01*
Y039475D01*
X019075Y039400D01*
X019225D01*
X019300Y039475D01*
X019750Y039850D02*
X019600Y039775D01*
X019450Y039625D01*
Y039475D01*
X019525Y039400D01*
X019675D01*
X019750Y039475D01*
Y039550D01*
X019675Y039625D01*
X019450D01*
X020200Y035575D02*
X020125Y035650D01*
X019975D01*
X019900Y035575D01*
Y035275D01*
X019975Y035200D01*
X020125D01*
X020200Y035275D01*
X020350Y035650D02*
X020650D01*
Y035575D01*
X020350Y035275D01*
Y035200D01*
X014800Y035375D02*
X014725Y035450D01*
X014575D01*
X014500Y035375D01*
Y035075D01*
X014575Y035000D01*
X014725D01*
X014800Y035075D01*
X014950Y035375D02*
X015025Y035450D01*
X015175D01*
X015250Y035375D01*
Y035300D01*
X015175Y035225D01*
X015250Y035150D01*
Y035075D01*
X015175Y035000D01*
X015025D01*
X014950Y035075D01*
Y035150D01*
X015025Y035225D01*
X014950Y035300D01*
Y035375D01*
X015025Y035225D02*
X015175D01*
X013890Y028935D02*
X013815Y029010D01*
X013665D01*
X013590Y028935D01*
Y028635D01*
X013665Y028560D01*
X013815D01*
X013890Y028635D01*
X014040D02*
X014115Y028560D01*
X014265D01*
X014340Y028635D01*
Y028935D01*
X014265Y029010D01*
X014115D01*
X014040Y028935D01*
Y028860D01*
X014115Y028785D01*
X014340D01*
X014500Y037475D02*
X014425Y037550D01*
X014275D01*
X014200Y037475D01*
Y037175D01*
X014275Y037100D01*
X014425D01*
X014500Y037175D01*
X014650Y037100D02*
X014800D01*
X014725D01*
Y037550D01*
X014650Y037475D01*
X015025D02*
X015100Y037550D01*
X015250D01*
X015325Y037475D01*
Y037175D01*
X015250Y037100D01*
X015100D01*
X015025Y037175D01*
Y037475D01*
X022425Y027900D02*
X022350Y027825D01*
Y027675D01*
X022425Y027600D01*
X022725D01*
X022800Y027675D01*
Y027825D01*
X022725Y027900D01*
X022800Y028050D02*
Y028200D01*
Y028125D01*
X022350D01*
X022425Y028050D01*
X022800Y028425D02*
Y028575D01*
Y028500D01*
X022350D01*
X022425Y028425D01*
X022500Y032175D02*
X022425Y032250D01*
X022275D01*
X022200Y032175D01*
Y031875D01*
X022275Y031800D01*
X022425D01*
X022500Y031875D01*
X022650Y031800D02*
X022800D01*
X022725D01*
Y032250D01*
X022650Y032175D01*
X023325Y031800D02*
X023025D01*
X023325Y032100D01*
Y032175D01*
X023250Y032250D01*
X023100D01*
X023025Y032175D01*
X019800Y031675D02*
X019725Y031750D01*
X019575D01*
X019500Y031675D01*
Y031375D01*
X019575Y031300D01*
X019725D01*
X019800Y031375D01*
X019950Y031300D02*
X020100D01*
X020025D01*
Y031750D01*
X019950Y031675D01*
X020325D02*
X020400Y031750D01*
X020550D01*
X020625Y031675D01*
Y031600D01*
X020550Y031525D01*
X020475D01*
X020550D01*
X020625Y031450D01*
Y031375D01*
X020550Y031300D01*
X020400D01*
X020325Y031375D01*
X011600Y030145D02*
X011525Y030220D01*
X011375D01*
X011300Y030145D01*
Y029845D01*
X011375Y029770D01*
X011525D01*
X011600Y029845D01*
X011750Y029770D02*
X011900D01*
X011825D01*
Y030220D01*
X011750Y030145D01*
X012425Y030220D02*
X012125D01*
Y029995D01*
X012275Y030070D01*
X012350D01*
X012425Y029995D01*
Y029845D01*
X012350Y029770D01*
X012200D01*
X012125Y029845D01*
X016229Y025058D02*
X016154Y025133D01*
X016004D01*
X015929Y025058D01*
Y024758D01*
X016004Y024683D01*
X016154D01*
X016229Y024758D01*
X016379Y024683D02*
X016529D01*
X016454D01*
Y025133D01*
X016379Y025058D01*
X017054Y025133D02*
X016904Y025058D01*
X016754Y024908D01*
Y024758D01*
X016829Y024683D01*
X016979D01*
X017054Y024758D01*
Y024833D01*
X016979Y024908D01*
X016754D01*
X020900Y025075D02*
X020825Y025150D01*
X020675D01*
X020600Y025075D01*
Y024775D01*
X020675Y024700D01*
X020825D01*
X020900Y024775D01*
X021050Y024700D02*
X021200D01*
X021125D01*
Y025150D01*
X021050Y025075D01*
X021425Y025150D02*
X021725D01*
Y025075D01*
X021425Y024775D01*
Y024700D01*
X014000Y025250D02*
Y024800D01*
X014225D01*
X014300Y024875D01*
Y025175D01*
X014225Y025250D01*
X014000D01*
X014450Y024800D02*
X014600D01*
X014525D01*
Y025250D01*
X014450Y025175D01*
X014300Y022750D02*
Y022300D01*
X014525D01*
X014600Y022375D01*
Y022675D01*
X014525Y022750D01*
X014300D01*
X015050Y022300D02*
X014750D01*
X015050Y022600D01*
Y022675D01*
X014975Y022750D01*
X014825D01*
X014750Y022675D01*
X015000Y040200D02*
X014550D01*
Y040425D01*
X014625Y040500D01*
X014775D01*
X014850Y040425D01*
Y040200D01*
Y040350D02*
X015000Y040500D01*
Y040650D02*
Y040800D01*
Y040725D01*
X014550D01*
X014625Y040650D01*
X019900Y038600D02*
Y039050D01*
X020125D01*
X020200Y038975D01*
Y038825D01*
X020125Y038750D01*
X019900D01*
X020050D02*
X020200Y038600D01*
X020650D02*
X020350D01*
X020650Y038900D01*
Y038975D01*
X020575Y039050D01*
X020425D01*
X020350Y038975D01*
X020961Y033300D02*
Y033750D01*
X021186D01*
X021261Y033675D01*
Y033525D01*
X021186Y033450D01*
X020961D01*
X021111D02*
X021261Y033300D01*
X021411Y033675D02*
X021486Y033750D01*
X021636D01*
X021711Y033675D01*
Y033600D01*
X021636Y033525D01*
X021561D01*
X021636D01*
X021711Y033450D01*
Y033375D01*
X021636Y033300D01*
X021486D01*
X021411Y033375D01*
X013100Y030400D02*
Y030850D01*
X013325D01*
X013400Y030775D01*
Y030625D01*
X013325Y030550D01*
X013100D01*
X013250D02*
X013400Y030400D01*
X013775D02*
Y030850D01*
X013550Y030625D01*
X013850D01*
X012400Y040100D02*
X011950D01*
Y040325D01*
X012025Y040400D01*
X012175D01*
X012250Y040325D01*
Y040100D01*
Y040250D02*
X012400Y040400D01*
X011950Y040850D02*
X012025Y040700D01*
X012175Y040550D01*
X012325D01*
X012400Y040625D01*
Y040775D01*
X012325Y040850D01*
X012250D01*
X012175Y040775D01*
Y040550D01*
X017700Y040100D02*
X017250D01*
Y040325D01*
X017325Y040400D01*
X017475D01*
X017550Y040325D01*
Y040100D01*
Y040250D02*
X017700Y040400D01*
X017250Y040550D02*
Y040850D01*
X017325D01*
X017625Y040550D01*
X017700D01*
X020900Y036400D02*
X020450D01*
Y036625D01*
X020525Y036700D01*
X020675D01*
X020750Y036625D01*
Y036400D01*
Y036550D02*
X020900Y036700D01*
X020525Y036850D02*
X020450Y036925D01*
Y037075D01*
X020525Y037150D01*
X020600D01*
X020675Y037075D01*
X020750Y037150D01*
X020825D01*
X020900Y037075D01*
Y036925D01*
X020825Y036850D01*
X020750D01*
X020675Y036925D01*
X020600Y036850D01*
X020525D01*
X020675Y036925D02*
Y037075D01*
X016200Y034100D02*
Y034550D01*
X016425D01*
X016500Y034475D01*
Y034325D01*
X016425Y034250D01*
X016200D01*
X016350D02*
X016500Y034100D01*
X016650Y034175D02*
X016725Y034100D01*
X016875D01*
X016950Y034175D01*
Y034475D01*
X016875Y034550D01*
X016725D01*
X016650Y034475D01*
Y034400D01*
X016725Y034325D01*
X016950D01*
X013020Y032260D02*
Y032710D01*
X013245D01*
X013320Y032635D01*
Y032485D01*
X013245Y032410D01*
X013020D01*
X013170D02*
X013320Y032260D01*
X013470D02*
X013620D01*
X013545D01*
Y032710D01*
X013470Y032635D01*
X013845D02*
X013920Y032710D01*
X014070D01*
X014145Y032635D01*
Y032335D01*
X014070Y032260D01*
X013920D01*
X013845Y032335D01*
Y032635D01*
X012300Y037600D02*
Y038050D01*
X012525D01*
X012600Y037975D01*
Y037825D01*
X012525Y037750D01*
X012300D01*
X012450D02*
X012600Y037600D01*
X012750D02*
X012900D01*
X012825D01*
Y038050D01*
X012750Y037975D01*
X013125Y037600D02*
X013275D01*
X013200D01*
Y038050D01*
X013125Y037975D01*
X023300Y037300D02*
X023750D01*
Y037075D01*
X023675Y037000D01*
X023525D01*
X023450Y037075D01*
Y037300D01*
Y037150D02*
X023300Y037000D01*
Y036850D02*
Y036700D01*
Y036775D01*
X023750D01*
X023675Y036850D01*
X023300Y036175D02*
Y036475D01*
X023600Y036175D01*
X023675D01*
X023750Y036250D01*
Y036400D01*
X023675Y036475D01*
X016000Y031800D02*
X015550D01*
Y032025D01*
X015625Y032100D01*
X015775D01*
X015850Y032025D01*
Y031800D01*
Y031950D02*
X016000Y032100D01*
Y032250D02*
Y032400D01*
Y032325D01*
X015550D01*
X015625Y032250D01*
Y032625D02*
X015550Y032700D01*
Y032850D01*
X015625Y032925D01*
X015700D01*
X015775Y032850D01*
Y032775D01*
Y032850D01*
X015850Y032925D01*
X015925D01*
X016000Y032850D01*
Y032700D01*
X015925Y032625D01*
X011400Y034800D02*
X010950D01*
Y035025D01*
X011025Y035100D01*
X011175D01*
X011250Y035025D01*
Y034800D01*
Y034950D02*
X011400Y035100D01*
Y035250D02*
Y035400D01*
Y035325D01*
X010950D01*
X011025Y035250D01*
X011400Y035850D02*
X010950D01*
X011175Y035625D01*
Y035925D01*
X012500Y023500D02*
X012050D01*
Y023725D01*
X012125Y023800D01*
X012275D01*
X012350Y023725D01*
Y023500D01*
Y023650D02*
X012500Y023800D01*
Y023950D02*
Y024100D01*
Y024025D01*
X012050D01*
X012125Y023950D01*
X012050Y024625D02*
Y024325D01*
X012275D01*
X012200Y024475D01*
Y024550D01*
X012275Y024625D01*
X012425D01*
X012500Y024550D01*
Y024400D01*
X012425Y024325D01*
X020000Y026500D02*
Y026950D01*
X020225D01*
X020300Y026875D01*
Y026725D01*
X020225Y026650D01*
X020000D01*
X020150D02*
X020300Y026500D01*
X020450D02*
X020600D01*
X020525D01*
Y026950D01*
X020450Y026875D01*
X021125Y026950D02*
X020975Y026875D01*
X020825Y026725D01*
Y026575D01*
X020900Y026500D01*
X021050D01*
X021125Y026575D01*
Y026650D01*
X021050Y026725D01*
X020825D01*
X022200Y026500D02*
Y026950D01*
X022425D01*
X022500Y026875D01*
Y026725D01*
X022425Y026650D01*
X022200D01*
X022350D02*
X022500Y026500D01*
X022650D02*
X022800D01*
X022725D01*
Y026950D01*
X022650Y026875D01*
X023025Y026950D02*
X023325D01*
Y026875D01*
X023025Y026575D01*
Y026500D01*
X021100Y029600D02*
Y030050D01*
X021325D01*
X021400Y029975D01*
Y029825D01*
X021325Y029750D01*
X021100D01*
X021250D02*
X021400Y029600D01*
X021550D02*
X021700D01*
X021625D01*
Y030050D01*
X021550Y029975D01*
X021925D02*
X022000Y030050D01*
X022150D01*
X022225Y029975D01*
Y029900D01*
X022150Y029825D01*
X022225Y029750D01*
Y029675D01*
X022150Y029600D01*
X022000D01*
X021925Y029675D01*
Y029750D01*
X022000Y029825D01*
X021925Y029900D01*
Y029975D01*
X022000Y029825D02*
X022150D01*
X013500Y026500D02*
Y026950D01*
X013725D01*
X013800Y026875D01*
Y026725D01*
X013725Y026650D01*
X013500D01*
X013650D02*
X013800Y026500D01*
X014250D02*
X013950D01*
X014250Y026800D01*
Y026875D01*
X014175Y026950D01*
X014025D01*
X013950Y026875D01*
X014400D02*
X014475Y026950D01*
X014625D01*
X014700Y026875D01*
Y026575D01*
X014625Y026500D01*
X014475D01*
X014400Y026575D01*
Y026875D01*
X023900Y023800D02*
X023450D01*
Y024025D01*
X023525Y024100D01*
X023675D01*
X023750Y024025D01*
Y023800D01*
Y023950D02*
X023900Y024100D01*
Y024550D02*
Y024250D01*
X023600Y024550D01*
X023525D01*
X023450Y024475D01*
Y024325D01*
X023525Y024250D01*
X023900Y024700D02*
Y024850D01*
Y024775D01*
X023450D01*
X023525Y024700D01*
X017500Y024600D02*
Y025050D01*
X017725D01*
X017800Y024975D01*
Y024825D01*
X017725Y024750D01*
X017500D01*
X017650D02*
X017800Y024600D01*
X018250D02*
X017950D01*
X018250Y024900D01*
Y024975D01*
X018175Y025050D01*
X018025D01*
X017950Y024975D01*
X018700Y024600D02*
X018400D01*
X018700Y024900D01*
Y024975D01*
X018625Y025050D01*
X018475D01*
X018400Y024975D01*
X012300Y026700D02*
X012750D01*
Y026475D01*
X012675Y026400D01*
X012525D01*
X012450Y026475D01*
Y026700D01*
Y026550D02*
X012300Y026400D01*
Y025950D02*
Y026250D01*
X012600Y025950D01*
X012675D01*
X012750Y026025D01*
Y026175D01*
X012675Y026250D01*
Y025800D02*
X012750Y025725D01*
Y025575D01*
X012675Y025500D01*
X012600D01*
X012525Y025575D01*
Y025650D01*
Y025575D01*
X012450Y025500D01*
X012375D01*
X012300Y025575D01*
Y025725D01*
X012375Y025800D01*
X019000Y024700D02*
Y025150D01*
X019225D01*
X019300Y025075D01*
Y024925D01*
X019225Y024850D01*
X019000D01*
X019150D02*
X019300Y024700D01*
X019750D02*
X019450D01*
X019750Y025000D01*
Y025075D01*
X019675Y025150D01*
X019525D01*
X019450Y025075D01*
X020125Y024700D02*
Y025150D01*
X019900Y024925D01*
X020200D01*
X017600Y039250D02*
Y038875D01*
X017675Y038800D01*
X017825D01*
X017900Y038875D01*
Y039250D01*
X018050Y038800D02*
X018200D01*
X018125D01*
Y039250D01*
X018050Y039175D01*
X017200Y029950D02*
Y029575D01*
X017275Y029500D01*
X017425D01*
X017500Y029575D01*
Y029950D01*
X017950Y029500D02*
X017650D01*
X017950Y029800D01*
Y029875D01*
X017875Y029950D01*
X017725D01*
X017650Y029875D01*
X016300Y039775D02*
X016225Y039850D01*
X016075D01*
X016000Y039775D01*
Y039475D01*
X016075Y039400D01*
X016225D01*
X016300Y039475D01*
X016450Y039400D02*
X016600D01*
X016525D01*
Y039850D01*
X016450Y039775D01*
X012900Y035100D02*
Y035550D01*
X013125D01*
X013200Y035475D01*
Y035325D01*
X013125Y035250D01*
X012900D01*
X013050D02*
X013200Y035100D01*
X013650Y035550D02*
X013350D01*
Y035325D01*
X013500Y035400D01*
X013575D01*
X013650Y035325D01*
Y035175D01*
X013575Y035100D01*
X013425D01*
X013350Y035175D01*
X017100Y031575D02*
X017025Y031650D01*
X016875D01*
X016800Y031575D01*
Y031275D01*
X016875Y031200D01*
X017025D01*
X017100Y031275D01*
X017250Y031200D02*
X017400D01*
X017325D01*
Y031650D01*
X017250Y031575D01*
X017850Y031200D02*
Y031650D01*
X017625Y031425D01*
X017925D01*
X019300Y029500D02*
Y029950D01*
X019525D01*
X019600Y029875D01*
Y029725D01*
X019525Y029650D01*
X019300D01*
X019450D02*
X019600Y029500D01*
X019750D02*
X019900D01*
X019825D01*
Y029950D01*
X019750Y029875D01*
X020125Y029575D02*
X020200Y029500D01*
X020350D01*
X020425Y029575D01*
Y029875D01*
X020350Y029950D01*
X020200D01*
X020125Y029875D01*
Y029800D01*
X020200Y029725D01*
X020425D01*
X034000Y039100D02*
X033560D01*
Y039320D01*
X033633Y039393D01*
X033780D01*
X033853Y039320D01*
Y039100D01*
Y039247D02*
X034000Y039393D01*
Y039833D02*
Y039540D01*
X033707Y039833D01*
X033633D01*
X033560Y039760D01*
Y039613D01*
X033633Y039540D01*
X033560Y040273D02*
Y039980D01*
X033780D01*
X033707Y040126D01*
Y040200D01*
X033780Y040273D01*
X033927D01*
X034000Y040200D01*
Y040053D01*
X033927Y039980D01*
X038500Y038200D02*
Y038640D01*
X038720D01*
X038793Y038567D01*
Y038420D01*
X038720Y038347D01*
X038500D01*
X038647D02*
X038793Y038200D01*
X039233D02*
X038940D01*
X039233Y038493D01*
Y038567D01*
X039160Y038640D01*
X039013D01*
X038940Y038567D01*
X039673Y038640D02*
X039526Y038567D01*
X039380Y038420D01*
Y038273D01*
X039453Y038200D01*
X039600D01*
X039673Y038273D01*
Y038347D01*
X039600Y038420D01*
X039380D01*
X043100Y038200D02*
Y038640D01*
X043320D01*
X043393Y038567D01*
Y038420D01*
X043320Y038347D01*
X043100D01*
X043247D02*
X043393Y038200D01*
X043833D02*
X043540D01*
X043833Y038493D01*
Y038567D01*
X043760Y038640D01*
X043613D01*
X043540Y038567D01*
X043980Y038640D02*
X044273D01*
Y038567D01*
X043980Y038273D01*
Y038200D01*
X027250Y028400D02*
Y028033D01*
X027323Y027960D01*
X027470D01*
X027543Y028033D01*
Y028400D01*
X027910Y027960D02*
Y028400D01*
X027690Y028180D01*
X027983D01*
X035200Y025100D02*
Y025550D01*
X035425D01*
X035500Y025475D01*
Y025325D01*
X035425Y025250D01*
X035200D01*
X035350D02*
X035500Y025100D01*
X035950D02*
X035650D01*
X035950Y025400D01*
Y025475D01*
X035875Y025550D01*
X035725D01*
X035650Y025475D01*
X036100Y025175D02*
X036175Y025100D01*
X036325D01*
X036400Y025175D01*
Y025475D01*
X036325Y025550D01*
X036175D01*
X036100Y025475D01*
Y025400D01*
X036175Y025325D01*
X036400D01*
X033300Y027500D02*
Y027950D01*
X033525D01*
X033600Y027875D01*
Y027725D01*
X033525Y027650D01*
X033300D01*
X033450D02*
X033600Y027500D01*
X033750Y027875D02*
X033825Y027950D01*
X033975D01*
X034050Y027875D01*
Y027800D01*
X033975Y027725D01*
X033900D01*
X033975D01*
X034050Y027650D01*
Y027575D01*
X033975Y027500D01*
X033825D01*
X033750Y027575D01*
X034200Y027875D02*
X034275Y027950D01*
X034425D01*
X034500Y027875D01*
Y027575D01*
X034425Y027500D01*
X034275D01*
X034200Y027575D01*
Y027875D01*
X011250Y037900D02*
X011483D01*
X011600Y038017D01*
X011483Y038133D01*
X011250D01*
X011425Y038250D02*
Y038483D01*
X011308Y038367D02*
X011542D01*
X011308Y040033D02*
X011250Y039975D01*
Y039858D01*
X011308Y039800D01*
X011542D01*
X011600Y039858D01*
Y039975D01*
X011542Y040033D01*
X011425D01*
Y039917D01*
X011600Y040150D02*
X011250D01*
X011600Y040383D01*
X011250D01*
Y040500D02*
X011600D01*
Y040675D01*
X011542Y040733D01*
X011308D01*
X011250Y040675D01*
Y040500D01*
X035910Y036277D02*
Y036077D01*
X035977Y036010D01*
X036043Y036077D01*
X036110Y036010D01*
X036177Y036077D01*
Y036277D01*
X036310D02*
Y036077D01*
X036377Y036010D01*
X036443Y036077D01*
X036510Y036010D01*
X036576Y036077D01*
Y036277D01*
X036710D02*
Y036077D01*
X036776Y036010D01*
X036843Y036077D01*
X036910Y036010D01*
X036976Y036077D01*
Y036277D01*
X037110Y036010D02*
Y036077D01*
X037176D01*
Y036010D01*
X037110D01*
X037443Y035877D02*
X037509D01*
X037576Y035943D01*
Y036277D01*
X038043Y036010D02*
X037909D01*
X037843Y036077D01*
Y036210D01*
X037909Y036277D01*
X038043D01*
X038109Y036210D01*
Y036143D01*
X037843D01*
X038309Y036277D02*
X038443D01*
X038509Y036210D01*
Y036010D01*
X038309D01*
X038243Y036077D01*
X038309Y036143D01*
X038509D01*
X038642Y036010D02*
Y036277D01*
X038842D01*
X038909Y036210D01*
Y036010D01*
X039042Y036210D02*
X039309D01*
X039442Y036277D02*
Y036010D01*
Y036143D01*
X039509Y036210D01*
X039575Y036277D01*
X039642D01*
X039842Y036010D02*
X039975D01*
X039909D01*
Y036277D01*
X039842D01*
X040442D02*
X040242D01*
X040175Y036210D01*
Y036077D01*
X040242Y036010D01*
X040442D01*
X040575Y036410D02*
Y036010D01*
Y036210D01*
X040642Y036277D01*
X040775D01*
X040842Y036210D01*
Y036010D01*
X041042Y036277D02*
X041175D01*
X041242Y036210D01*
Y036010D01*
X041042D01*
X040975Y036077D01*
X041042Y036143D01*
X041242D01*
X041375Y036277D02*
Y036010D01*
Y036143D01*
X041442Y036210D01*
X041508Y036277D01*
X041575D01*
X042041Y036410D02*
Y036010D01*
X041841D01*
X041775Y036077D01*
Y036210D01*
X041841Y036277D01*
X042041D01*
X042175Y036010D02*
Y036077D01*
X042241D01*
Y036010D01*
X042175D01*
X042774Y036277D02*
X042575D01*
X042508Y036210D01*
Y036077D01*
X042575Y036010D01*
X042774D01*
X042908Y036410D02*
Y036010D01*
Y036210D01*
X042974Y036277D01*
X043108D01*
X043174Y036210D01*
Y036010D01*
X043308D02*
X043574Y036277D01*
X043707Y036410D02*
X043974D01*
X043841D01*
Y036010D01*
X044307D02*
X044174D01*
X044107Y036077D01*
Y036210D01*
X044174Y036277D01*
X044307D01*
X044374Y036210D01*
Y036143D01*
X044107D01*
X044707Y036010D02*
X044574D01*
X044507Y036077D01*
Y036210D01*
X044574Y036277D01*
X044707D01*
X044774Y036210D01*
Y036143D01*
X044507D01*
X044907Y036010D02*
Y036277D01*
X045107D01*
X045174Y036210D01*
Y036010D01*
X045307D02*
X045507D01*
X045574Y036077D01*
X045507Y036143D01*
X045374D01*
X045307Y036210D01*
X045374Y036277D01*
X045574D01*
X045707D02*
Y036077D01*
X045773Y036010D01*
X045973D01*
Y035943D01*
X045907Y035877D01*
X045840D01*
X045973Y036010D02*
Y036277D01*
X046107Y036410D02*
Y036010D01*
X046307D01*
X046373Y036077D01*
Y036143D01*
X046307Y036210D01*
X046107D01*
X046307D01*
X046373Y036277D01*
Y036343D01*
X046307Y036410D01*
X046107D01*
X046573Y036277D02*
X046707D01*
X046773Y036210D01*
Y036010D01*
X046573D01*
X046507Y036077D01*
X046573Y036143D01*
X046773D01*
X046973Y036343D02*
Y036277D01*
X046906D01*
X047040D01*
X046973D01*
Y036077D01*
X047040Y036010D01*
M02*
