M48
;Layer_Color=6321
;FILE_FORMAT=2:4
INCH
;TYPE=PLATED
T1F00S00C0.0079
T2F00S00C0.0280
T3F00S00C0.0315
T4F00S00C0.0350
T5F00S00C0.0354
T6F00S00C0.0394
T7F00S00C0.0400
%
T01
X029483Y025867
Y026300
Y026733
X029917
Y026300
Y025867
T02
X031400Y024600
X031700Y027700
X031900Y029200
X035500Y029400
X036800Y029300
X037700Y029900
X038700Y029600
X039600Y029700
X041900
X039600Y027050
Y024400
X041100Y022600
X036800Y024900
Y027000
X035800Y026400
X034410Y025140
X027600Y024100
X027500Y022500
X023400Y022800
X022200Y022900
X023000Y026400
X019500Y027500
X020900Y030600
X028200Y028500
X027470Y027450
X013100Y027900
X011000Y030500
X015500Y030600
X013700Y036600
X019800Y036800
X025141Y037491
X025700Y036200
X028100Y037700
X029140Y037840
X030200Y036900
X031200Y034900
X030200Y033500
X028600Y032100
X031500Y031700
X032300Y037100
T03
X025300Y023213
Y024000
T04
X010500Y038200
Y039200
Y040200
T05
X047209Y024291
X048209
Y028291
X047209
X046209
Y024291
T06
X025700Y038800
Y040572
X028259
X029700
Y038800
X028259
X032259
Y040572
X035600Y039700
X036600
X040100
X041100
X044600
X045600
T07
X034000Y023500
X035000
X025400Y026100
Y027100
Y028100
Y029100
Y030100
Y031100
Y032100
Y033100
Y034100
X034700Y034400
Y033400
Y032400
Y031400
X035700
X036700
X037700
X038700
X039700
X040700
X041700
X042700
X043700
X044700
X045700
X046700
Y032400
X044700
X043700
X042700
Y037400
X043700
X044700
X045700
X046700
X041700
X040700
X039700
X038700
X037700
X036700
X035700
X034700
Y036400
Y035400
X047700Y037400
Y031400
M30
