G04 Layer_Physical_Order=1*
G04 Layer_Color=25308*
%FSAX24Y24*%
%MOIN*%
G70*
G01*
G75*
%ADD10C,0.0100*%
%ADD11R,0.0748X0.0591*%
%ADD12R,0.0650X0.0433*%
%ADD13R,0.0236X0.0433*%
%ADD14R,0.0591X0.0748*%
%ADD15R,0.0433X0.0650*%
%ADD16R,0.0532X0.0256*%
%ADD17R,0.0669X0.0433*%
%ADD18R,0.0591X0.1102*%
%ADD19R,0.0709X0.0512*%
%ADD20O,0.0866X0.0236*%
%ADD21R,0.0945X0.1331*%
%ADD22O,0.0787X0.0138*%
G04:AMPARAMS|DCode=23|XSize=20mil|YSize=40mil|CornerRadius=5mil|HoleSize=0mil|Usage=FLASHONLY|Rotation=180.000|XOffset=0mil|YOffset=0mil|HoleType=Round|Shape=RoundedRectangle|*
%AMROUNDEDRECTD23*
21,1,0.0200,0.0300,0,0,180.0*
21,1,0.0100,0.0400,0,0,180.0*
1,1,0.0100,-0.0050,0.0150*
1,1,0.0100,0.0050,0.0150*
1,1,0.0100,0.0050,-0.0150*
1,1,0.0100,-0.0050,-0.0150*
%
%ADD23ROUNDEDRECTD23*%
G04:AMPARAMS|DCode=24|XSize=20mil|YSize=40mil|CornerRadius=5mil|HoleSize=0mil|Usage=FLASHONLY|Rotation=270.000|XOffset=0mil|YOffset=0mil|HoleType=Round|Shape=RoundedRectangle|*
%AMROUNDEDRECTD24*
21,1,0.0200,0.0300,0,0,270.0*
21,1,0.0100,0.0400,0,0,270.0*
1,1,0.0100,-0.0150,-0.0050*
1,1,0.0100,-0.0150,0.0050*
1,1,0.0100,0.0150,0.0050*
1,1,0.0100,0.0150,-0.0050*
%
%ADD24ROUNDEDRECTD24*%
%ADD25C,0.0315*%
G04:AMPARAMS|DCode=26|XSize=30mil|YSize=20mil|CornerRadius=2mil|HoleSize=0mil|Usage=FLASHONLY|Rotation=90.000|XOffset=0mil|YOffset=0mil|HoleType=Round|Shape=RoundedRectangle|*
%AMROUNDEDRECTD26*
21,1,0.0300,0.0160,0,0,90.0*
21,1,0.0260,0.0200,0,0,90.0*
1,1,0.0040,0.0080,0.0130*
1,1,0.0040,0.0080,-0.0130*
1,1,0.0040,-0.0080,-0.0130*
1,1,0.0040,-0.0080,0.0130*
%
%ADD26ROUNDEDRECTD26*%
%ADD27C,0.0200*%
%ADD28C,0.0120*%
%ADD29C,0.0060*%
%ADD30R,0.0160X0.0140*%
%ADD31C,0.0800*%
%ADD32C,0.0600*%
%ADD33R,0.0600X0.0600*%
%ADD34R,0.0650X0.0650*%
%ADD35C,0.0650*%
%ADD36R,0.0800X0.0800*%
%ADD37C,0.0591*%
%ADD38R,0.0591X0.0591*%
%ADD39C,0.0630*%
%ADD40C,0.0551*%
G04:AMPARAMS|DCode=41|XSize=55.1mil|YSize=55.1mil|CornerRadius=16.5mil|HoleSize=0mil|Usage=FLASHONLY|Rotation=270.000|XOffset=0mil|YOffset=0mil|HoleType=Round|Shape=RoundedRectangle|*
%AMROUNDEDRECTD41*
21,1,0.0551,0.0220,0,0,270.0*
21,1,0.0220,0.0551,0,0,270.0*
1,1,0.0331,-0.0110,-0.0110*
1,1,0.0331,-0.0110,0.0110*
1,1,0.0331,0.0110,0.0110*
1,1,0.0331,0.0110,-0.0110*
%
%ADD41ROUNDEDRECTD41*%
%ADD42C,0.0500*%
%ADD43C,0.0200*%
G36*
X030937Y032456D02*
X031003Y032412D01*
X031081Y032396D01*
X031916D01*
X032096Y032216D01*
Y030784D01*
X031632Y030320D01*
X031586Y030340D01*
Y030650D01*
X031241D01*
Y030226D01*
X031472D01*
X031491Y030180D01*
X031316Y030004D01*
X030792D01*
X030791Y030009D01*
X030758Y030058D01*
X030709Y030091D01*
X030650Y030103D01*
X030550D01*
X030491Y030091D01*
X030450Y030064D01*
X030409Y030091D01*
X030350Y030103D01*
X030305D01*
X030300Y030104D01*
X030295Y030103D01*
X030250D01*
X030191Y030091D01*
X030150Y030064D01*
X030109Y030091D01*
X030050Y030103D01*
X030005D01*
X030000Y030104D01*
X029995Y030103D01*
X029950D01*
X029891Y030091D01*
X029842Y030058D01*
X029809Y030009D01*
X029808Y030004D01*
X029492D01*
Y030144D01*
X029474D01*
X029462Y030204D01*
X029418Y030270D01*
X029282Y030406D01*
X029303Y030456D01*
X029492D01*
Y030569D01*
X029614D01*
Y030226D01*
X030405D01*
Y031174D01*
X029614D01*
Y030976D01*
X029492D01*
Y031089D01*
X029056D01*
Y030504D01*
X028744D01*
Y031056D01*
X029184Y031496D01*
X029700D01*
X029778Y031512D01*
X029844Y031556D01*
X030335Y032046D01*
X030379Y032113D01*
X030394Y032191D01*
Y032500D01*
X030893D01*
X030937Y032456D01*
D02*
G37*
G36*
X029987Y032275D02*
X029616Y031904D01*
X029100D01*
X029022Y031888D01*
X028956Y031844D01*
X028382Y031270D01*
X028338Y031204D01*
X028322Y031126D01*
Y031089D01*
X028308D01*
Y030992D01*
X028035D01*
Y031105D01*
X027165D01*
Y030472D01*
X028035D01*
Y030584D01*
X028308D01*
Y030456D01*
X028497D01*
X028518Y030406D01*
X028382Y030270D01*
X028338Y030204D01*
X028328Y030155D01*
X027754D01*
Y030307D01*
X026846D01*
Y029595D01*
X027754D01*
Y029747D01*
X028308D01*
Y029511D01*
X028850D01*
Y029828D01*
X028950D01*
Y029511D01*
X029492D01*
Y029596D01*
X029808D01*
X029809Y029591D01*
X029842Y029542D01*
X029891Y029509D01*
X029950Y029497D01*
X030050D01*
X030057Y029499D01*
X030096Y029467D01*
Y029051D01*
X029895D01*
Y028084D01*
X029556Y027744D01*
X029548Y027732D01*
X029521Y027748D01*
X029518Y027750D01*
X029515Y027752D01*
X029509Y027755D01*
X029505Y027758D01*
Y027763D01*
X029505Y027796D01*
Y027797D01*
Y027797D01*
Y028350D01*
X029159D01*
Y027749D01*
X029457D01*
X029457D01*
X029458Y027749D01*
X029487D01*
X029499Y027749D01*
X029500Y027747D01*
X029502Y027745D01*
X029504Y027743D01*
X029505Y027742D01*
X029514Y027732D01*
X029533Y027711D01*
X029512Y027678D01*
X029496Y027600D01*
Y027504D01*
X029300D01*
X029222Y027488D01*
X029156Y027444D01*
X029112Y027378D01*
X029096Y027300D01*
X029049Y027281D01*
X029033Y027284D01*
X029010Y027328D01*
X029027Y027363D01*
X029042Y027386D01*
X029045Y027402D01*
X028071D01*
X028074Y027386D01*
X028090Y027363D01*
X028109Y027324D01*
X028090Y027284D01*
X028074Y027262D01*
X028071Y027246D01*
X028558D01*
Y027146D01*
X028071D01*
X028072Y027143D01*
X028044Y027093D01*
X027300D01*
X027241Y027081D01*
X027192Y027048D01*
X026992Y026848D01*
X026959Y026798D01*
X026947Y026740D01*
Y026000D01*
X026959Y025941D01*
X026992Y025892D01*
X027092Y025792D01*
X027141Y025759D01*
X027164Y025754D01*
X027165Y025705D01*
X027165Y025705D01*
X027165Y025705D01*
Y025072D01*
X028035D01*
X028035Y025072D01*
X028083Y025069D01*
X028112Y025027D01*
X028168Y024989D01*
X028233Y024976D01*
X028508D01*
Y025148D01*
X028558D01*
Y025198D01*
X029045D01*
X029042Y025214D01*
X029027Y025237D01*
X029008Y025276D01*
X029027Y025316D01*
X029036Y025329D01*
X029076Y025342D01*
X029094Y025344D01*
X029103Y025336D01*
X029096Y025300D01*
X029112Y025222D01*
X029156Y025156D01*
X029222Y025112D01*
X029300Y025096D01*
X029416D01*
X029496Y025016D01*
Y024574D01*
X029395D01*
Y023626D01*
X029496D01*
Y023400D01*
X026600D01*
Y032458D01*
X026638Y032496D01*
X029500D01*
X029520Y032500D01*
X029987D01*
Y032275D01*
D02*
G37*
G36*
X032400Y026984D02*
Y024385D01*
X032381Y024373D01*
X032350Y024364D01*
X032309Y024391D01*
X032250Y024403D01*
X032150D01*
Y024200D01*
X032100D01*
Y024150D01*
X031797D01*
X031809Y024091D01*
X031836Y024050D01*
X031809Y024009D01*
X031797Y023950D01*
Y023850D01*
X031799Y023843D01*
X031767Y023804D01*
X030375D01*
X030186Y023993D01*
Y024574D01*
X029904D01*
Y025016D01*
X029984Y025096D01*
X030100D01*
X030178Y025112D01*
X030244Y025156D01*
X030288Y025222D01*
X030304Y025300D01*
X030351Y025319D01*
X030367Y025316D01*
X030390Y025272D01*
X030373Y025237D01*
X030358Y025214D01*
X030355Y025198D01*
X030842D01*
Y025148D01*
X030892D01*
Y024976D01*
X031167D01*
X031232Y024989D01*
X031288Y025027D01*
X031317Y025069D01*
X031365Y025072D01*
X031365Y025072D01*
X031365Y025072D01*
X032235D01*
Y025705D01*
X031714D01*
X031643Y025776D01*
X031590Y025811D01*
X031528Y025823D01*
X031363D01*
X031330Y025873D01*
X031339Y025916D01*
X031330Y025959D01*
X031363Y026009D01*
X031560D01*
X031623Y026021D01*
X031676Y026057D01*
X031701Y026095D01*
X032235D01*
Y026728D01*
X031365D01*
Y026728D01*
X031325Y026751D01*
X031310Y026773D01*
X031291Y026812D01*
X031310Y026851D01*
X031326Y026874D01*
X031329Y026890D01*
X030842D01*
Y026990D01*
X031329D01*
X031328Y026993D01*
X031356Y027043D01*
X032341D01*
X032400Y026984D01*
D02*
G37*
G36*
Y030446D02*
Y028100D01*
Y027349D01*
X031356D01*
X031328Y027399D01*
X031329Y027402D01*
X030355D01*
X030358Y027386D01*
X030373Y027363D01*
X030390Y027328D01*
X030367Y027284D01*
X030351Y027281D01*
X030304Y027300D01*
X030288Y027378D01*
X030244Y027444D01*
X030178Y027488D01*
X030100Y027504D01*
X029963D01*
X029942Y027554D01*
X030137Y027749D01*
X030686D01*
Y029051D01*
X030504D01*
Y029467D01*
X030543Y029499D01*
X030550Y029497D01*
X030650D01*
X030709Y029509D01*
X030758Y029542D01*
X030791Y029591D01*
X030792Y029596D01*
X031400D01*
X031478Y029612D01*
X031544Y029656D01*
X032354Y030465D01*
X032400Y030446D01*
D02*
G37*
%LPC*%
G36*
X028883Y027624D02*
X028608D01*
Y027502D01*
X029045D01*
X029042Y027517D01*
X029005Y027573D01*
X028949Y027611D01*
X028883Y027624D01*
D02*
G37*
G36*
X028508D02*
X028233D01*
X028168Y027611D01*
X028112Y027573D01*
X028074Y027517D01*
X028071Y027502D01*
X028508D01*
Y027624D01*
D02*
G37*
G36*
X028559Y024050D02*
X028214D01*
Y023626D01*
X028559D01*
Y024050D01*
D02*
G37*
G36*
X029059Y028350D02*
X028714D01*
Y027749D01*
X029059D01*
Y028350D01*
D02*
G37*
G36*
X031167Y027624D02*
X030892D01*
Y027502D01*
X031329D01*
X031326Y027517D01*
X031288Y027573D01*
X031232Y027611D01*
X031167Y027624D01*
D02*
G37*
G36*
X030792D02*
X030517D01*
X030451Y027611D01*
X030395Y027573D01*
X030358Y027517D01*
X030355Y027502D01*
X030792D01*
Y027624D01*
D02*
G37*
G36*
X029045Y025098D02*
X028608D01*
Y024976D01*
X028883D01*
X028949Y024989D01*
X029005Y025027D01*
X029042Y025083D01*
X029045Y025098D01*
D02*
G37*
G36*
X032050Y024403D02*
X031950D01*
X031891Y024391D01*
X031842Y024358D01*
X031809Y024309D01*
X031797Y024250D01*
X032050D01*
Y024403D01*
D02*
G37*
G36*
X029005Y024574D02*
X028659D01*
Y024150D01*
X029005D01*
Y024574D01*
D02*
G37*
G36*
Y024050D02*
X028659D01*
Y023626D01*
X029005D01*
Y024050D01*
D02*
G37*
G36*
X030792Y025098D02*
X030355D01*
X030358Y025083D01*
X030395Y025027D01*
X030451Y024989D01*
X030517Y024976D01*
X030792D01*
Y025098D01*
D02*
G37*
G36*
X028559Y024574D02*
X028214D01*
Y024150D01*
X028559D01*
Y024574D01*
D02*
G37*
G36*
X027550Y031762D02*
X027165D01*
Y031495D01*
X027550D01*
Y031762D01*
D02*
G37*
G36*
X031586Y031174D02*
X031241D01*
Y030750D01*
X031586D01*
Y031174D01*
D02*
G37*
G36*
X031141D02*
X030795D01*
Y030750D01*
X031141D01*
Y031174D01*
D02*
G37*
G36*
X028035Y032128D02*
X027650D01*
Y031862D01*
X028035D01*
Y032128D01*
D02*
G37*
G36*
X027550D02*
X027165D01*
Y031862D01*
X027550D01*
Y032128D01*
D02*
G37*
G36*
X028035Y031762D02*
X027650D01*
Y031495D01*
X028035D01*
Y031762D01*
D02*
G37*
G36*
X031141Y030650D02*
X030795D01*
Y030226D01*
X031141D01*
Y030650D01*
D02*
G37*
G36*
X027250Y028799D02*
X026846D01*
Y028493D01*
X027250D01*
Y028799D01*
D02*
G37*
G36*
X029505Y029051D02*
X029159D01*
Y028450D01*
X029505D01*
Y029051D01*
D02*
G37*
G36*
X029059D02*
X028714D01*
Y028450D01*
X029059D01*
Y029051D01*
D02*
G37*
G36*
X027754Y029205D02*
X027350D01*
Y028899D01*
X027754D01*
Y029205D01*
D02*
G37*
G36*
X027250D02*
X026846D01*
Y028899D01*
X027250D01*
Y029205D01*
D02*
G37*
G36*
X027754Y028799D02*
X027350D01*
Y028493D01*
X027754D01*
Y028799D01*
D02*
G37*
%LPD*%
D10*
X041740Y024870D02*
G03*
X041740Y024870I-000010J000000D01*
G01*
X035800Y026400D02*
Y027100D01*
X035500Y027400D02*
X035800Y027100D01*
X029140Y037840D02*
X032680D01*
X027900Y036000D02*
X029250D01*
X027700Y035800D02*
X029000D01*
X030700Y034100D01*
X028100Y036400D02*
X034700D01*
X038700Y038600D02*
X040400D01*
X038161Y039139D02*
X038700Y038600D01*
X033820Y037400D02*
X034700D01*
X033520Y037100D02*
X033820Y037400D01*
X032300Y037100D02*
X033520D01*
X032680Y037840D02*
X033220Y038380D01*
X036720D01*
X037700Y037400D01*
X040400Y038600D02*
X040700Y038300D01*
X034410Y024560D02*
Y025140D01*
X034400Y024550D02*
X034410Y024560D01*
X032100Y023900D02*
X032499D01*
X032600Y024001D01*
X035200Y029900D02*
X037700D01*
X034900Y029600D02*
X035200Y029900D01*
X034900Y027061D02*
Y029600D01*
X035500Y027400D02*
Y029400D01*
X036200Y030500D02*
X036700Y031000D01*
X033754Y030500D02*
X036200D01*
X033200Y031054D02*
X033754Y030500D01*
X035500Y030700D02*
X035700Y030900D01*
X033836Y030700D02*
X035500D01*
X033400Y031136D02*
X033836Y030700D01*
X035700Y030900D02*
Y031000D01*
X033800Y027061D02*
X034900D01*
X046500Y038200D02*
X046900Y038600D01*
X043700Y037400D02*
Y038200D01*
X044000Y038500D01*
X046100D01*
X046400Y038800D01*
Y040300D01*
X045900Y040800D02*
X046400Y040300D01*
X033600Y040800D02*
X045900D01*
X032500Y039700D02*
X033600Y040800D01*
X029100Y039700D02*
X032500D01*
X029100D02*
Y039731D01*
X028259Y040572D02*
X029100Y039731D01*
X046100Y041000D02*
X046900Y040200D01*
Y038700D02*
Y040200D01*
X033500Y041000D02*
X046100D01*
X033072Y040572D02*
X033500Y041000D01*
X032259Y040572D02*
X033072D01*
X034600Y039139D02*
X038161D01*
X036039Y040261D02*
X036600Y039700D01*
X034600Y040261D02*
X036039D01*
X042700Y037400D02*
Y038900D01*
X042939Y039139D01*
X043600D01*
X045039Y040261D02*
X045600Y039700D01*
X043600Y040261D02*
X045039D01*
X040539D02*
X041100Y039700D01*
X039100Y040261D02*
X040539D01*
X041700Y037400D02*
Y038500D01*
X041061Y039139D02*
X041700Y038500D01*
X039100Y039139D02*
X041061D01*
X040700Y037400D02*
Y038300D01*
X021400Y034591D02*
X021491Y034500D01*
X021400Y034591D02*
Y035739D01*
X025700Y040572D02*
X028259D01*
X029700D02*
X032259D01*
X044700Y037400D02*
Y038000D01*
X044900Y038200D01*
X046500D01*
X030822Y027196D02*
X032404D01*
X032600Y027000D01*
Y024001D02*
Y027000D01*
X027100Y026740D02*
X027300Y026940D01*
X027100Y026000D02*
Y026740D01*
Y026000D02*
X027200Y025900D01*
X027300Y026940D02*
X028578D01*
X032800Y034300D02*
X033400Y033700D01*
X032600Y034100D02*
X033200Y033500D01*
Y031054D02*
Y033500D01*
X033400Y031136D02*
Y033700D01*
X029250Y036000D02*
X030950Y034300D01*
X032800D01*
X030700Y034100D02*
X032600D01*
X026639Y033139D02*
X027900D01*
X026000Y032500D02*
X026639Y033139D01*
X027200Y025900D02*
X028562D01*
X026000Y027700D02*
Y032500D01*
X025400Y027100D02*
X026000Y027700D01*
X024200Y029300D02*
X025400Y028100D01*
X024400Y031100D02*
X025400Y030100D01*
X026900Y037000D02*
X027900Y036000D01*
X024200Y029300D02*
Y036300D01*
X026700Y036800D02*
X027700Y035800D01*
X024400Y031100D02*
Y036200D01*
X024200Y036300D02*
X024900Y037000D01*
X026900D01*
X024400Y036200D02*
X025000Y036800D01*
X026700D01*
X025141Y037491D02*
X027009D01*
X028100Y036400D01*
D11*
X021200Y024091D02*
D03*
Y022909D02*
D03*
X023400Y027709D02*
D03*
Y028891D02*
D03*
X019000Y034091D02*
D03*
Y032909D02*
D03*
X014800Y034391D02*
D03*
Y033209D02*
D03*
X022800Y039691D02*
D03*
Y038509D02*
D03*
X012000Y031409D02*
D03*
Y032591D02*
D03*
X011800Y028991D02*
D03*
Y027809D02*
D03*
X016500Y024191D02*
D03*
Y023009D02*
D03*
D12*
X034900Y025939D02*
D03*
Y027061D02*
D03*
X033800Y025939D02*
D03*
Y027061D02*
D03*
X022900Y024761D02*
D03*
Y023639D02*
D03*
X019600Y023039D02*
D03*
Y024161D02*
D03*
X018000Y024161D02*
D03*
Y023039D02*
D03*
X011800Y025439D02*
D03*
Y026561D02*
D03*
X013100Y024661D02*
D03*
Y023539D02*
D03*
X020300Y029061D02*
D03*
Y027939D02*
D03*
X021700Y028039D02*
D03*
Y029161D02*
D03*
X012000Y035861D02*
D03*
Y034739D02*
D03*
X022800Y037261D02*
D03*
Y036139D02*
D03*
X013200Y034661D02*
D03*
Y033539D02*
D03*
X021400Y036861D02*
D03*
Y035739D02*
D03*
X027900Y034261D02*
D03*
Y033139D02*
D03*
X034600Y040261D02*
D03*
Y039139D02*
D03*
X039100Y040261D02*
D03*
Y039139D02*
D03*
X043600Y040261D02*
D03*
Y039139D02*
D03*
D13*
X028526Y030772D02*
D03*
X029274D02*
D03*
Y029828D02*
D03*
X028900D02*
D03*
X028526D02*
D03*
D14*
X030009Y030700D02*
D03*
X031191D02*
D03*
X017591Y030600D02*
D03*
X016409D02*
D03*
X018909D02*
D03*
X020091D02*
D03*
X022009Y031100D02*
D03*
X023191D02*
D03*
X020309Y034500D02*
D03*
X021491D02*
D03*
X020309Y039900D02*
D03*
X021491D02*
D03*
X013191Y038800D02*
D03*
X012009D02*
D03*
X015191Y027700D02*
D03*
X014009D02*
D03*
X015191Y036400D02*
D03*
X014009D02*
D03*
X015991Y038800D02*
D03*
X014809D02*
D03*
X028609Y024100D02*
D03*
X029791D02*
D03*
D15*
X023561Y026000D02*
D03*
X022439D02*
D03*
X021361D02*
D03*
X020239D02*
D03*
X013839D02*
D03*
X014961D02*
D03*
X014461Y029800D02*
D03*
X013339D02*
D03*
X017561Y033600D02*
D03*
X016439D02*
D03*
X021361Y038100D02*
D03*
X020239D02*
D03*
X012961Y037100D02*
D03*
X011839D02*
D03*
X013139Y031600D02*
D03*
X014261D02*
D03*
X012839Y040500D02*
D03*
X013961D02*
D03*
X021461Y032800D02*
D03*
X020339D02*
D03*
X016539Y032200D02*
D03*
X017661D02*
D03*
X016561Y040500D02*
D03*
X015439D02*
D03*
X018139D02*
D03*
X019261D02*
D03*
D16*
X014328Y024400D02*
D03*
X015272D02*
D03*
X015172Y023300D02*
D03*
X014228D02*
D03*
D17*
X027600Y025388D02*
D03*
Y026412D02*
D03*
X031800Y025388D02*
D03*
Y026412D02*
D03*
X027600Y031812D02*
D03*
Y030788D02*
D03*
D18*
X029109Y028400D02*
D03*
X030291D02*
D03*
D19*
X027300Y028849D02*
D03*
Y029951D02*
D03*
D20*
X018895Y035300D02*
D03*
Y035800D02*
D03*
Y036300D02*
D03*
Y036800D02*
D03*
Y037300D02*
D03*
Y037800D02*
D03*
Y038300D02*
D03*
X017005Y035300D02*
D03*
Y035800D02*
D03*
Y036300D02*
D03*
Y036800D02*
D03*
Y037300D02*
D03*
Y037800D02*
D03*
Y038300D02*
D03*
X018545Y026000D02*
D03*
Y026500D02*
D03*
Y027000D02*
D03*
Y027500D02*
D03*
Y028000D02*
D03*
Y028500D02*
D03*
Y029000D02*
D03*
X016655Y026000D02*
D03*
Y026500D02*
D03*
Y027000D02*
D03*
Y027500D02*
D03*
Y028000D02*
D03*
Y028500D02*
D03*
Y029000D02*
D03*
D21*
X029700Y026300D02*
D03*
D22*
X030842Y025148D02*
D03*
Y025404D02*
D03*
Y025660D02*
D03*
Y025916D02*
D03*
Y026172D02*
D03*
Y026428D02*
D03*
Y026684D02*
D03*
Y026940D02*
D03*
Y027196D02*
D03*
Y027452D02*
D03*
X028558Y025148D02*
D03*
Y025404D02*
D03*
Y025660D02*
D03*
Y025916D02*
D03*
Y026172D02*
D03*
Y026428D02*
D03*
Y026684D02*
D03*
Y026940D02*
D03*
Y027196D02*
D03*
Y027452D02*
D03*
D23*
X030300Y029800D02*
D03*
X030000D02*
D03*
X030600D02*
D03*
D24*
X032100Y023900D02*
D03*
Y023600D02*
D03*
Y024200D02*
D03*
D25*
X047793Y027226D02*
D03*
Y026556D02*
D03*
X046825Y027226D02*
D03*
Y026556D02*
D03*
X047793Y023226D02*
D03*
Y022556D02*
D03*
X046825Y023226D02*
D03*
Y022556D02*
D03*
D26*
X034400Y024600D02*
D03*
Y024200D02*
D03*
X026300Y024600D02*
D03*
Y024200D02*
D03*
D27*
X036800Y024900D02*
Y029300D01*
X028900Y036900D02*
X030200D01*
X028100Y037700D02*
X028900Y036900D01*
X029420Y034261D02*
X029981Y033700D01*
X027900Y034261D02*
X029420D01*
X031500Y031188D02*
Y031700D01*
X031012Y030700D02*
X031500Y031188D01*
X046444Y026556D02*
X046825D01*
X033800Y023500D02*
X034000D01*
X033000Y024300D02*
X033800Y023500D01*
X033000Y024300D02*
Y027100D01*
X032400Y027700D02*
X033000Y027100D01*
X031700Y027700D02*
X032400D01*
X025650Y022650D02*
X026300Y022000D01*
X034000Y023500D02*
X034400Y023900D01*
Y024150D01*
X034000Y023500D02*
Y023800D01*
X033800Y024000D02*
X034000Y023800D01*
X033800Y024000D02*
Y025939D01*
X029700Y023400D02*
Y025100D01*
X029791Y024100D02*
X030291Y023600D01*
X032100D01*
X029700Y023400D02*
X030300Y022800D01*
X034400D01*
X035000Y023400D01*
Y023500D01*
X034900Y023600D02*
Y025939D01*
X036500Y030200D02*
X036900Y030600D01*
X033700Y030200D02*
X036500D01*
X032900Y031000D02*
X033700Y030200D01*
X039600Y024400D02*
Y029700D01*
X040600Y023449D02*
Y029500D01*
X039151Y022000D02*
X040600Y023449D01*
X026300Y022000D02*
X039151D01*
X040600Y029500D02*
X041300Y030200D01*
X029700Y027600D02*
X030212Y028112D01*
X029700Y027300D02*
Y027600D01*
Y027300D02*
X030100D01*
X029300D02*
X029700D01*
X029300Y025300D02*
X029500D01*
X029700Y025100D01*
X029900Y025300D02*
X030100D01*
X029700Y025100D02*
X029900Y025300D01*
X013609Y036000D02*
X014009Y036400D01*
X013100Y036000D02*
X013609D01*
X018200Y036700D02*
Y037100D01*
Y036500D02*
Y036700D01*
X017700D02*
Y037100D01*
Y036500D02*
Y036700D01*
X018200D01*
X023400Y028891D02*
Y029900D01*
X023561Y026000D02*
X023600Y026039D01*
Y026900D01*
X023974Y027274D01*
Y028317D01*
X023400Y028891D02*
X023974Y028317D01*
X022700Y026800D02*
X023000Y026500D01*
X022100Y026800D02*
X022700D01*
X021700Y027200D02*
X022100Y026800D01*
X010200Y022700D02*
Y037200D01*
X021700Y027200D02*
Y028039D01*
X022191Y022909D02*
X022200Y022900D01*
X021200Y022909D02*
X022191D01*
X021070Y023039D02*
X021200Y022909D01*
X019600Y023039D02*
X021070D01*
X019039Y023600D02*
X019600Y023039D01*
X017200Y023600D02*
X019039D01*
X016609Y024191D02*
X017200Y023600D01*
X016500Y024191D02*
X016609D01*
X011500Y024600D02*
X011800Y024900D01*
Y025439D01*
X015172Y023300D02*
X015272Y023400D01*
Y024400D01*
X015300Y024428D02*
Y025100D01*
X016200Y026000D01*
X016675D01*
X013989Y023539D02*
X014228Y023300D01*
X013100Y023539D02*
X013989D01*
X013100Y024661D02*
X013361Y024400D01*
X014328D01*
Y025367D01*
X014961Y026000D01*
X015461Y026500D01*
X016675D01*
X014009Y027700D02*
X014709Y027000D01*
X012361Y026000D02*
X013839D01*
X011800Y026561D02*
X012361Y026000D01*
X011800Y026561D02*
Y027809D01*
X010500Y027700D02*
X011200Y028400D01*
X014900D01*
X015191Y028109D01*
Y027700D02*
Y028109D01*
X013100Y027900D02*
X013809D01*
X014009Y027700D01*
X017300Y027000D02*
X017800Y027500D01*
X014709Y027000D02*
X017300D01*
X016000Y027500D02*
X016675D01*
X015800Y027700D02*
X016000Y027500D01*
X015191Y027700D02*
X015800D01*
X020400Y029161D02*
X021700D01*
X020300Y029061D02*
X020400Y029161D01*
X020161Y029061D02*
X020300D01*
X019100Y028000D02*
X020161Y029061D01*
X018525Y028000D02*
X019100D01*
X019900Y027500D02*
X020300Y027900D01*
X017800Y027500D02*
X019500D01*
X019900D01*
X023191Y030109D02*
X023300Y030000D01*
X023200Y029900D02*
X023400D01*
X023191Y030109D02*
Y031100D01*
X023152Y027709D02*
X023400D01*
X021700Y029161D02*
X023152Y027709D01*
X021700Y029161D02*
X022009Y029470D01*
Y031100D01*
X017025Y036300D02*
X017500D01*
X017005D02*
X017025D01*
X017591Y030600D02*
Y031009D01*
X017100Y031500D02*
X017591Y031009D01*
X016800Y031500D02*
X017100D01*
X016539Y031761D02*
X016800Y031500D01*
X016539Y031761D02*
Y032200D01*
X017000Y032661D01*
Y034300D01*
X017700Y035000D01*
Y036500D01*
X017900Y028500D02*
X018525D01*
X017400Y028000D02*
X017900Y028500D01*
X016675Y028000D02*
X017400D01*
X020091Y030600D02*
X020900D01*
X015500D02*
X016409D01*
X018250D02*
X018909D01*
X017591D02*
X018250D01*
Y029750D02*
Y030600D01*
Y029750D02*
X018525Y029475D01*
Y029000D02*
Y029475D01*
Y028500D02*
Y029000D01*
X010200Y037200D02*
X010500Y037500D01*
Y038200D01*
X018400Y036300D02*
X018875D01*
X022639D01*
X022800Y036139D01*
X010500Y035300D02*
X014100D01*
Y035309D01*
X015191Y036400D01*
X012961Y037100D02*
X013100D01*
X012000Y035861D02*
X012961Y036822D01*
Y037100D01*
X015191Y036400D02*
X015700D01*
X016100Y036800D01*
X013100Y037100D02*
X013300Y037300D01*
X017500D01*
X018895Y036800D02*
X019800D01*
X018200Y036500D02*
X018400Y036300D01*
X018200Y037100D02*
X018400Y037300D01*
X018895D01*
X017500Y036300D02*
X017700Y036500D01*
X017500Y037300D02*
X017700Y037100D01*
X016100Y036800D02*
X017005D01*
X046209Y026791D02*
X046444Y026556D01*
X046209Y026791D02*
Y028291D01*
X046825Y027226D02*
Y027907D01*
X047209Y028291D01*
X047793Y026556D02*
Y027226D01*
Y027875D01*
X048209Y028291D01*
X046825Y023226D02*
Y023907D01*
X047209Y024291D01*
X046444Y022556D02*
X046825D01*
X046209Y022791D02*
X046444Y022556D01*
X046209Y022791D02*
Y024291D01*
X047793Y022556D02*
Y023226D01*
Y023875D01*
X048209Y024291D01*
X010500Y022800D02*
X011050Y022250D01*
X010500Y022800D02*
Y035300D01*
X037700Y022500D02*
X038700Y023500D01*
X027500Y022500D02*
X037700D01*
X011050Y022250D02*
X023750D01*
X010200Y022700D02*
X010900Y022000D01*
X024000D01*
X036900Y030600D02*
X044900D01*
X045700Y031400D01*
X041100Y022600D02*
Y028900D01*
X041900Y029700D01*
X038700Y023500D02*
Y029600D01*
X045500Y030200D02*
X046700Y031400D01*
X041300Y030200D02*
X045500D01*
X028900Y029400D02*
Y029828D01*
Y029400D02*
X029109Y029191D01*
Y028400D02*
Y029191D01*
X030291Y028400D02*
X030300Y028409D01*
Y028488D02*
Y029900D01*
X030212Y028112D02*
Y028400D01*
X030300Y028488D01*
X029302Y029800D02*
X029900D01*
X029274Y029828D02*
X029302Y029800D01*
X028526Y030772D02*
Y031126D01*
X029100Y031700D01*
X029900Y029800D02*
X030000Y029900D01*
X029274Y030772D02*
X029916D01*
X029988Y030700D01*
X027300Y029951D02*
X028402D01*
X028526Y029828D01*
Y030126D01*
X028700Y030300D01*
X029100D01*
X029274Y030126D01*
Y029828D02*
Y030126D01*
X027600Y030788D02*
X028510D01*
X028526Y030772D01*
X030600Y029800D02*
X031400D01*
X029100Y031700D02*
X029700D01*
X030191Y032191D01*
X034200Y034900D02*
X034700Y034400D01*
X030200Y033500D02*
X032400D01*
X032900Y033000D01*
Y031000D02*
Y033000D01*
X031400Y029800D02*
X032300Y030700D01*
Y032300D01*
X032000Y032600D02*
X032300Y032300D01*
X031081Y032600D02*
X032000D01*
X031200Y034900D02*
X034200D01*
X026554Y032700D02*
X029500D01*
X030191Y033391D01*
Y033491D01*
X029981Y033700D02*
X030191Y033491D01*
Y032191D02*
Y033391D01*
Y033491D02*
X031081Y032600D01*
X026300Y024600D02*
Y032446D01*
X026554Y032700D01*
X027000Y033700D02*
X029981D01*
X026500Y034200D02*
X027000Y033700D01*
X025500Y034200D02*
X026500D01*
X025400Y034100D02*
X025500Y034200D01*
X023750Y022250D02*
X024000Y022500D01*
Y022000D02*
X024300Y022300D01*
X025650Y022650D02*
Y022863D01*
X023000Y025600D02*
Y026500D01*
Y025600D02*
X023250Y025350D01*
X023550D01*
X025300Y023213D02*
X025650Y022863D01*
X023550Y025350D02*
X024000Y024900D01*
X024400D02*
X025300Y024000D01*
X024300Y022300D02*
Y024550D01*
X024000Y024900D02*
X024400D01*
X023950D02*
X024000Y024850D01*
X024300Y024550D01*
X024000Y022500D02*
Y024850D01*
Y024900D01*
X025000Y033100D02*
X025400D01*
X024700Y033400D02*
X025000Y033100D01*
X024700Y033400D02*
Y035200D01*
X025700Y036200D01*
X027300Y028849D02*
X027851D01*
X028200Y028500D01*
X030000Y029800D02*
X030300D01*
X032100Y023600D02*
Y023900D01*
X025300Y024000D02*
X026250D01*
X026300Y024050D01*
D28*
X031528Y025660D02*
X031800Y025388D01*
X030802Y025660D02*
X031528D01*
X030802Y026172D02*
X031560D01*
X027600Y026412D02*
X027840Y026172D01*
X028598D01*
X017025Y038300D02*
Y038800D01*
X015991D02*
X017025D01*
X016291Y022800D02*
X016500Y023009D01*
X014728Y022800D02*
X016291D01*
X014228Y023300D02*
X014728Y022800D01*
X022548Y024091D02*
X023300Y023339D01*
X021200Y024091D02*
X022548D01*
X021239Y025000D02*
X022761D01*
X012969Y028991D02*
X013339Y029361D01*
X011800Y028991D02*
X012969D01*
X016575Y029100D02*
X016675Y029000D01*
X013600Y029100D02*
X016575D01*
X013339Y029361D02*
X013600Y029100D01*
X013339Y029361D02*
Y029800D01*
X014261Y031600D02*
X014461Y031400D01*
Y029800D02*
Y031400D01*
X017500Y029000D02*
X017600Y028900D01*
X017200Y028500D02*
X017600Y028900D01*
X016675Y028500D02*
X017200D01*
X021361Y026000D02*
Y026339D01*
X020900Y026800D02*
X021361Y026339D01*
X019600Y026800D02*
X020900D01*
X019300Y026500D02*
X019600Y026800D01*
X018525Y026500D02*
X019300D01*
X021361Y026000D02*
X022439D01*
X020239D02*
X021239Y025000D01*
X018525Y026000D02*
X020239D01*
X017800Y024361D02*
X018000Y024161D01*
X017800Y024361D02*
Y026600D01*
X018200Y027000D01*
X018525D01*
X018000Y024161D02*
X019600D01*
X017970Y023009D02*
X018000Y023039D01*
X016500Y023009D02*
X017970D01*
X020309Y033952D02*
X021461Y032800D01*
X020309Y033952D02*
Y034500D01*
X017661Y032200D02*
X018370Y032909D01*
X019000D01*
X018895Y034196D02*
Y035300D01*
X019048Y034091D02*
X020339Y032800D01*
X019000Y034091D02*
X019048D01*
X020309Y034500D02*
Y035591D01*
X020100Y035800D02*
X020309Y035591D01*
X018875Y035800D02*
X020100D01*
X018300Y034100D02*
X018991D01*
X017800Y033600D02*
X018300Y034100D01*
X017561Y033600D02*
X017800D01*
X016048Y033209D02*
X016439Y033600D01*
X014800Y033209D02*
X016048D01*
X013139Y031600D02*
X013200Y031661D01*
X012948Y031409D02*
X013139Y031600D01*
X012000Y031409D02*
X012948D01*
X013200Y031661D02*
Y033539D01*
X012000Y032591D02*
Y034739D01*
X013200Y033539D02*
X013639D01*
X013900Y033800D01*
X015525D01*
X017025Y035300D01*
X014109Y034391D02*
X014800D01*
X013839Y034661D02*
X014109Y034391D01*
X013200Y034661D02*
X013839D01*
X014800Y034391D02*
Y034800D01*
X015800Y035800D01*
X011800Y037139D02*
X011839Y037100D01*
X011800Y037139D02*
Y038100D01*
X012009Y038309D01*
Y038800D01*
X021361Y038252D02*
X022009Y038900D01*
X022800Y039691D01*
X019475Y038900D02*
X022009D01*
X018875Y038300D02*
X019475Y038900D01*
X020000Y038100D02*
X020239D01*
X019700Y037800D02*
X020000Y038100D01*
X018875Y037800D02*
X019700D01*
X018400D02*
X018875D01*
X018200Y038000D02*
X018400Y037800D01*
X018200Y038000D02*
Y038900D01*
X018700Y039400D01*
X019809D01*
X020309Y039900D01*
X020891Y040500D02*
X021491Y039900D01*
X019261Y040500D02*
X020891D01*
X010500Y039200D02*
X011800Y040500D01*
X012839D01*
X016561Y040300D02*
X017025Y039836D01*
X016561Y040300D02*
Y040500D01*
X013061Y039600D02*
X013209Y039452D01*
X014809D01*
X012700Y039600D02*
X013061D01*
X013961Y040500D01*
X015100Y037900D02*
X016925D01*
X014091D02*
X015100D01*
X015439Y038239D01*
Y040300D01*
X012009Y038800D02*
Y038909D01*
X012700Y039600D01*
X014809Y038800D02*
Y039452D01*
X016925Y037900D02*
X017025Y037800D01*
X013191Y038800D02*
X014091Y037900D01*
X017025Y038300D02*
Y039836D01*
X016561Y040500D02*
X018139D01*
X022800Y037300D02*
Y038409D01*
X015800Y035800D02*
X017005D01*
X014800Y033209D02*
X014809Y033200D01*
X018895Y034196D02*
X018991Y034100D01*
X023300Y022900D02*
Y023339D01*
X021400Y036861D02*
Y038061D01*
X017500Y029000D02*
Y029300D01*
X014461Y029800D02*
X017000D01*
X017500Y029300D01*
X011800Y028991D02*
Y029700D01*
X011000Y030500D02*
X011800Y029700D01*
X027600Y025388D02*
X027872Y025660D01*
X028598D01*
X028578Y026428D02*
Y026684D01*
X030842Y025148D02*
Y025404D01*
X028558Y025148D02*
Y025404D01*
X030842Y026684D02*
Y026940D01*
X028558Y027196D02*
Y027452D01*
X022761Y024900D02*
Y025000D01*
Y024900D02*
X022900Y024761D01*
X023300Y022900D02*
X023400Y022800D01*
D29*
X029300Y025300D02*
Y025378D01*
X029098Y025581D02*
X029300Y025378D01*
X029098Y025581D02*
Y025792D01*
X028970Y025920D02*
X029098Y025792D01*
X028582Y025920D02*
X028970D01*
X028558Y025904D02*
X028562Y025900D01*
X028582Y025920D01*
X030100Y025300D02*
X030318Y025518D01*
Y025818D01*
X030416Y025916D01*
X030842D01*
X030100Y027300D02*
X030318Y027082D01*
Y026520D02*
Y027082D01*
X030410Y026428D02*
X030842D01*
X030318Y026520D02*
X030410Y026428D01*
X029082Y027082D02*
X029300Y027300D01*
X029082Y026782D02*
Y027082D01*
X028984Y026684D02*
X029082Y026782D01*
X028558Y026684D02*
X028578D01*
X028984D01*
D30*
X034400Y024400D02*
D03*
X026300D02*
D03*
D31*
X040700Y037400D02*
D03*
X039700D02*
D03*
X038700D02*
D03*
X037700D02*
D03*
X036700D02*
D03*
X035700D02*
D03*
X034700D02*
D03*
Y036400D02*
D03*
Y035400D02*
D03*
Y034400D02*
D03*
Y033400D02*
D03*
Y032400D02*
D03*
Y031400D02*
D03*
X035700D02*
D03*
X036700D02*
D03*
X037700D02*
D03*
X038700D02*
D03*
X039700D02*
D03*
X040700D02*
D03*
X042700Y032400D02*
D03*
X043700D02*
D03*
X044700D02*
D03*
X046700D02*
D03*
X044700Y031400D02*
D03*
X043700D02*
D03*
X047700D02*
D03*
X046700D02*
D03*
X045700D02*
D03*
X042700D02*
D03*
X041700D02*
D03*
Y037400D02*
D03*
X042700D02*
D03*
X043700D02*
D03*
X044700D02*
D03*
X045700D02*
D03*
X046700D02*
D03*
X047700D02*
D03*
X029700Y040572D02*
D03*
X032259D02*
D03*
Y038800D02*
D03*
X029700D02*
D03*
X025700Y040572D02*
D03*
X028259D02*
D03*
Y038800D02*
D03*
X025700D02*
D03*
X025400Y033100D02*
D03*
Y032100D02*
D03*
Y031100D02*
D03*
Y030100D02*
D03*
Y029100D02*
D03*
Y028100D02*
D03*
Y027100D02*
D03*
Y026100D02*
D03*
D32*
X034000Y023500D02*
D03*
D33*
X035000D02*
D03*
D34*
X010500Y040200D02*
D03*
D35*
Y039200D02*
D03*
Y038200D02*
D03*
D36*
X025400Y034100D02*
D03*
D37*
X046209Y028291D02*
D03*
X047209D02*
D03*
X046209Y024291D02*
D03*
X047209D02*
D03*
D38*
X048209Y028291D02*
D03*
Y024291D02*
D03*
D39*
X035600Y039700D02*
D03*
X036600D02*
D03*
X040100D02*
D03*
X041100D02*
D03*
X044600D02*
D03*
X045600D02*
D03*
D40*
X025300Y024000D02*
D03*
D41*
Y023213D02*
D03*
D42*
X036800Y027000D02*
D03*
Y024900D02*
D03*
Y029300D02*
D03*
X035800Y026400D02*
D03*
X030200Y036900D02*
D03*
X028100Y037700D02*
D03*
X029140Y037840D02*
D03*
X032300Y037100D02*
D03*
X034410Y025140D02*
D03*
X031500Y031700D02*
D03*
X031400Y024600D02*
D03*
X037700Y029900D02*
D03*
X035500Y029400D02*
D03*
X039600Y027050D02*
D03*
Y029700D02*
D03*
Y024400D02*
D03*
X027470Y027450D02*
D03*
X031700Y027700D02*
D03*
X027600Y024100D02*
D03*
X013100Y036000D02*
D03*
X022200Y022900D02*
D03*
X011500Y024600D02*
D03*
X013100Y027900D02*
D03*
X019500Y027500D02*
D03*
X023200Y029900D02*
D03*
X020900Y030600D02*
D03*
X015500D02*
D03*
X019800Y036800D02*
D03*
X011000Y030500D02*
D03*
X027500Y022500D02*
D03*
X030200Y033500D02*
D03*
X041900Y029700D02*
D03*
X041100Y022600D02*
D03*
X038700Y029600D02*
D03*
X031200Y034900D02*
D03*
X025700Y036200D02*
D03*
X025141Y037491D02*
D03*
X028200Y028500D02*
D03*
X023400Y022800D02*
D03*
X028600Y032100D02*
D03*
X031900Y029200D02*
D03*
D43*
X029917Y025867D02*
D03*
X029483D02*
D03*
X029917Y026300D02*
D03*
X029483D02*
D03*
X029917Y026733D02*
D03*
X029483D02*
D03*
M02*
