G04 Layer_Color=8150272*
%FSAX24Y24*%
%MOIN*%
G70*
G01*
G75*
%ADD74C,0.0880*%
%ADD75C,0.0680*%
%ADD77R,0.0730X0.0730*%
%ADD78C,0.0730*%
%ADD79R,0.0880X0.0880*%
%ADD80C,0.0671*%
%ADD81R,0.0671X0.0671*%
%ADD82C,0.0710*%
%ADD83C,0.0631*%
G04:AMPARAMS|DCode=84|XSize=63.1mil|YSize=63.1mil|CornerRadius=20.5mil|HoleSize=0mil|Usage=FLASHONLY|Rotation=270.000|XOffset=0mil|YOffset=0mil|HoleType=Round|Shape=RoundedRectangle|*
%AMROUNDEDRECTD84*
21,1,0.0631,0.0220,0,0,270.0*
21,1,0.0220,0.0631,0,0,270.0*
1,1,0.0411,-0.0110,-0.0110*
1,1,0.0411,-0.0110,0.0110*
1,1,0.0411,0.0110,0.0110*
1,1,0.0411,0.0110,-0.0110*
%
%ADD84ROUNDEDRECTD84*%
%ADD85C,0.0580*%
%ADD86C,0.0280*%
%ADD87R,0.1497X0.1261*%
%ADD88R,0.0430X0.0280*%
%ADD89R,0.0260X0.0440*%
%ADD90R,0.0870X0.0430*%
%ADD91R,0.0510X0.0550*%
%ADD92R,0.0680X0.0520*%
D74*
X040700Y037400D02*
D03*
X039700D02*
D03*
X038700D02*
D03*
X037700D02*
D03*
X036700D02*
D03*
X035700D02*
D03*
X034700D02*
D03*
Y036400D02*
D03*
Y035400D02*
D03*
Y034400D02*
D03*
Y033400D02*
D03*
Y032400D02*
D03*
Y031400D02*
D03*
X035700D02*
D03*
X036700D02*
D03*
X037700D02*
D03*
X038700D02*
D03*
X039700D02*
D03*
X040700D02*
D03*
X042700Y032400D02*
D03*
X043700D02*
D03*
X044700D02*
D03*
X046700D02*
D03*
X044700Y031400D02*
D03*
X043700D02*
D03*
X047700D02*
D03*
X046700D02*
D03*
X045700D02*
D03*
X042700D02*
D03*
X041700D02*
D03*
Y037400D02*
D03*
X042700D02*
D03*
X043700D02*
D03*
X044700D02*
D03*
X045700D02*
D03*
X046700D02*
D03*
X047700D02*
D03*
X029700Y040572D02*
D03*
X032259D02*
D03*
Y038800D02*
D03*
X029700D02*
D03*
X025700Y040572D02*
D03*
X028259D02*
D03*
Y038800D02*
D03*
X025700D02*
D03*
X025400Y033100D02*
D03*
Y032100D02*
D03*
Y031100D02*
D03*
Y030100D02*
D03*
Y029100D02*
D03*
Y028100D02*
D03*
Y027100D02*
D03*
Y026100D02*
D03*
D75*
X034000Y023500D02*
D03*
X035000D02*
D03*
D77*
X010500Y040200D02*
D03*
D78*
Y039200D02*
D03*
Y038200D02*
D03*
D79*
X025400Y034100D02*
D03*
D80*
X046209Y028291D02*
D03*
X047209D02*
D03*
X046209Y024291D02*
D03*
X047209D02*
D03*
D81*
X048209Y028291D02*
D03*
Y024291D02*
D03*
D82*
X035600Y039700D02*
D03*
X036600D02*
D03*
X040100D02*
D03*
X041100D02*
D03*
X044600D02*
D03*
X045600D02*
D03*
D83*
X025300Y024000D02*
D03*
D84*
Y023213D02*
D03*
D85*
X036800Y027000D02*
D03*
Y024900D02*
D03*
Y029300D02*
D03*
X035800Y026400D02*
D03*
X030200Y036900D02*
D03*
X028100Y037700D02*
D03*
X029140Y037840D02*
D03*
X032300Y037100D02*
D03*
X034410Y025140D02*
D03*
X031500Y031700D02*
D03*
X031400Y024600D02*
D03*
X037700Y029900D02*
D03*
X035500Y029400D02*
D03*
X039600Y027050D02*
D03*
Y029700D02*
D03*
Y024400D02*
D03*
X027470Y027450D02*
D03*
X031700Y027700D02*
D03*
X027600Y024100D02*
D03*
X013100Y036000D02*
D03*
X022200Y022900D02*
D03*
X011500Y024600D02*
D03*
X013100Y027900D02*
D03*
X019500Y027500D02*
D03*
X023200Y029900D02*
D03*
X020900Y030600D02*
D03*
X015500D02*
D03*
X019800Y036800D02*
D03*
X011000Y030500D02*
D03*
X027500Y022500D02*
D03*
X030200Y033500D02*
D03*
X041900Y029700D02*
D03*
X041100Y022600D02*
D03*
X038700Y029600D02*
D03*
X031200Y034900D02*
D03*
X025700Y036200D02*
D03*
X025141Y037491D02*
D03*
X028200Y028500D02*
D03*
X023400Y022800D02*
D03*
X028600Y032100D02*
D03*
X031900Y029200D02*
D03*
D86*
X029917Y025867D02*
D03*
X029483D02*
D03*
X029917Y026300D02*
D03*
X029483D02*
D03*
X029917Y026733D02*
D03*
X029483D02*
D03*
D87*
X021600Y037999D02*
D03*
Y025401D02*
D03*
D88*
X038067Y028252D02*
D03*
Y024414D02*
D03*
D89*
X042827Y028757D02*
D03*
X042276D02*
D03*
X042000D02*
D03*
Y023043D02*
D03*
X042276D02*
D03*
X042827D02*
D03*
X042551Y028757D02*
D03*
Y023043D02*
D03*
D90*
X038994Y028754D02*
D03*
X039506Y023046D02*
D03*
D91*
X037871Y027248D02*
D03*
Y024886D02*
D03*
D92*
X043325Y023067D02*
D03*
Y028733D02*
D03*
M02*
