G04 Layer_Color=13813960*
%FSAX24Y24*%
%MOIN*%
G70*
G01*
G75*
%ADD10C,0.0100*%
%ADD55C,0.0050*%
D10*
X045709Y027791D02*
Y028791D01*
X048709D01*
X045709Y027791D02*
X048709D01*
Y028791D01*
X045709Y023791D02*
Y024791D01*
X048709D01*
X045709Y023791D02*
X048709D01*
Y024791D01*
X043780Y029290D02*
Y029890D01*
X043480D01*
X043380Y029790D01*
Y029590D01*
X043480Y029490D01*
X043780D01*
X042780Y029290D02*
X043180D01*
X042780Y029690D01*
Y029790D01*
X042880Y029890D01*
X043080D01*
X043180Y029790D01*
X024650Y039530D02*
Y038930D01*
X024350D01*
X024250Y039030D01*
Y039130D01*
X024350Y039230D01*
X024650D01*
X024350D01*
X024250Y039330D01*
Y039430D01*
X024350Y039530D01*
X024650D01*
X024050D02*
X023650D01*
X023850D01*
Y038930D01*
X023450D02*
X023251D01*
X023350D01*
Y039530D01*
X023450Y039430D01*
D55*
X043695Y028775D02*
X043850D01*
X043695Y023025D02*
X043850D01*
X037825Y025200D02*
Y026945D01*
Y028775D02*
X038545D01*
X037825Y027555D02*
Y028775D01*
X039470D02*
X041830D01*
X039975Y023025D02*
X041821D01*
X037825D02*
Y024575D01*
Y023025D02*
X039030D01*
M02*
